<?xml version="1.0" encoding="UTF-8"?>
<svg version="1.1" viewBox="0 0 2000 2000" width="1280" height="1280" xmlns="http://www.w3.org/2000/svg">
<path transform="translate(686,666)" d="m0 0h55l570 1 3 3 5 21 7 43 5 45 1 17v80l-3 37-5 40-6 37-9 40-8 31-12 39-12 35-12 29-12 27-14 29-10 20-13 23-11 19-12 19-17 25-13 18-12 16-11 14-22 26-14 15-11 12-21 21-8 7-10 9-11 9-13 11-19 14-19 13-6-1-16-11-13-10-14-11-13-11-14-12-13-12-29-29-7-8-11-12-9-11-11-13-24-32-12-17-12-18-12-19-15-26-16-29-14-28-14-31-16-40-10-28-11-34-10-38-8-36-7-41-3-22-4-47-1-28v-41l2-38 3-34 7-44 5-25 3-7z" fill="#28328B"/>
<path transform="translate(1338,348)" d="m0 0 10 1 23 5 15 5 12 6 12 11 6 8 4 9 2 7 1 8 2 37 3 17 10 27 4 4 2-13 8-24 2-10v-16l-1-18 4 2 10 15 10 18 8 19 5 19 1 6v27l-5 16-10 19-6 12-2 8v16l4 27 2 4 4-5 9-17 8-13 4-12 2-12 1-11h3l6 13 6 18 6 25 1 10v12l-2 15-5 16-6 11-12 14-7 10-4 10-2 10v30l1 5 7-6 9-12 9-10 7-14 4-12 2-8 2-1 3 8 5 23 1 17v30l-5 18-8 15-8 10-6 6h-2v2l-8 7-6 7-5 9-4 13v29l11-11 11-9 9-9 9-17 4-9 3 1 3 21v17l-2 20-3 16-4 12-8 16-12 13-8 7-10 7-8 7-6 11-5 14v7l-4 18 3-2 1-12 1-2h2l1-3 2 1v10l7-6 10-7 8-7 10-14 6-8 2-1 1 2v13l-1 19-3 21-5 18-8 16-8 11-4 5-8 7-3 3-5 1v2h7l1 1 1 11 3 3 6 2-5 33-7 25-8 17-7 10-2 3h-2l-2 4-9 8-11 7-22 8-6 4-10 11-4 10v3l6-1 2 2 2 7 3 1 10-3 10-6 4-5-1-7 4-9 6 2 6 3-1 12-6 20-6 16-8 16-7 11-15 15-10 6-18 6-17 4-9 5-6 6-1 3 4 2 16 16 9 13 5 11 1 3v18l-3 38-3 26-5 28-4 5-11 5-30 9-33 8-48 10-78 13v4l14 25 4 8v8l-7 28-9 31-14 55-7 3-23 3-73 6-38 2h-42l-55-3-70-6-12-2-4-3-7-25-8-32-11-39-5-19v-7l8-14 10-18 1-5-45-7-44-8-39-8-39-10-30-10-6-4-4-16-5-32-3-41-1-19 3-13 7-12 11-13 13-12-1-4-7-6-8-4-24-6-12-5-13-9-9-10-9-14-8-17-8-22-3-14-1-8 2-2 5 5 8 9 10 7 12 5 18 6 8 5-6-16-8-17-11-12-12-6-21-9-11-8-9-9-9-14-7-16-6-20-3-16-2-17v-5l2-1 5 5 10 14 9 7 20 10 11 8 2 1-3-14-5-16-7-13-5-6-14-9-14-7-12-11-8-10-9-17-6-21-3-18-1-32 1-3 4 2 12 19 2 4 4 2 17 12 10 9 5 3-2-14-5-21-4-10-8-10-10-7-12-9-12-12-7-12-6-16-4-21-1-9v-21l3-25h4l8 19 7 10 13 12 8 7 5 6 3 2v-16l-2-16-4-13-6-10-5-6-11-9-8-8-7-11-5-11-6-21-1-5v-21l5-27 5-20h3l8 24 7 11 11 12 7 9 4 6 1 1 1-14v-15l-2-17-4-9-6-9-9-10-9-15-5-13-3-17v-16l4-24 6-21 7-18 4-4 2 1 2 23 5 13 12 20 8 13v2h2l3-30v-19l-4-13-9-17-5-10-4-16v-22l3-15 5-16 9-20 14-23 4-5h3l-1 30 2 12 8 22 2 14h3l10-25 4-17 1-9 1-25 3-20 5-12 6-8 9-9 15-8 19-6 20-4h9l-3 5-8 10-8 13-5 12-4 15-5 27-4 14-6 10-9 10-16 15-6 13-10 27-2 6v4l9-5 9-4 16-6 9-6 10-9 5-3 1 1-1 10-4 20-7 20-9 17-7 9-10 10-16 9-11 6-10 9-7 14-4 17-2 14 6-4 11-9 10-6 10-8 14-18h3v31l-3 22-5 16-8 16-7 9-9 9-12 9-8 8-7 14-2 7-1 18v14l4-4 7-9 8-8 8-7 7-9 6-10 4-10 3 1 3 17 1 11v28l-3 18-5 14-9 15-14 15-8 9-4 10-3 11v16l2 17 4-2 7-11 11-12 8-14 7-20h4l4 15 4 19 1 10v29l-4 16-5 12-10 14-11 15-2 5-2 14 1 15 3 16 2 4h2l9-17 9-13 6-14 4-19 3-1 6 14 6 19 4 22 1 9v9l-2 17-5 14-8 14-6 9-4 11-1 6v10l5 20 4 11 3-1 9-20 6-11 5-27 1-7h4l9 16 10 25 4 17 1 21-2 18-5 12-6 12-4 13v13l5 17 5 9 2-4 4-1 2 1 8-21 2-15 1-21 4 2 9 11 10 17 9 21 3 12 1 7v23l-3 15-3 8v6l19-4 14-2 9 2 8 5 4 5 3 9v12l7 28 10 30 9 21 3 3 23 5 57 9 31 4 6 12 11 28 17 41 9 21 2 4-1 5-14 24-8 13-1 5 12 2 32 2 24 1h65l47-3 15-2-7-13-15-25-3-6 1-6 9-20 16-39 15-38 2-5 5-2 36-4 55-9 16-4 5-5 8-20 10-30 6-25 1-17 5-10 8-5 6-2h13l21 5 4 1-1-8-5-17-1-8v-16l3-18 7-18 10-19 12-17 4-2 1 6v16l1 12 7 17 5 14v4h3l2-6 6-10 4-12 1-6v-13l-3-9-11-24-3-14-1-16 4-25 9-24 8-16 4-7 4 1 3 4 5-8 2-6h3v-2l-4-10-3-17v-21l5-25 8-24 4-9 4-1 5 18 2 10 5 9 9 12 3 5 1-10 3-1 5 3 1-10v-12l-2-9-5-10-14-18-6-12-5-18-1-8v-22l3-22 6-24 4-2 8 22 9 14 4 5 5 5 5 6 3 6 2 1 1-10 2-4 1-13-3-15-5-12-9-10-11-11-9-14-5-13-4-17v-38l3-20 1-3 4 2 8 16 6 9 10 10 8 7 6 8v2l5 1-1-27-3-14-5-10-9-10-16-12-10-11-6-10-5-11-5-18-2-14-1-17v-17l2-2 5 5 8 11 9 9 17 11 10 8 2 1v-10l-4-20-6-12-5-6-10-7-16-8-11-8-9-9-8-13-7-15-6-18-3-11-1-7v-11l4 2 6 5v2l4 2 11 7 20 7 13 9 2 1-5-17-9-25-5-9-6-7-9-7-5-4-8-11-5-11-5-21-6-29-8-18-7-11-9-11zm13 8 1 4 8 13 6 13 4 16 6 33 5 14 7 9 7 7 10 8 6 8 7 14 15 40 6 18 2 2-2-12-3-21 4 8 3 7 2-4 1-6-7-25-13-32-5-18-2-20-2-31-4-13-6-9-9-8-12-7-12-4-19-4zm110 75-2 19-2 8-7 21-2 8v25l2 10-2 9 1 10 2-2 6-18 4-13 3-8 1-7 1-29 7 3 1 1h6l-3-10-6-14-9-13zm-936 46 1 19 2 14 2 2 1-4v-14l-4-17zm-6 6-2 8v7l5 16 2 1-1-13-3-19zm955 9-4 10-2 10 4-4 3-8v-8zm7 5v7h1v-7zm-928 10-7 11-5 13-6 25 1 2 5-6 4-10 7-24 2-11zm819 4 1 10 9 27 11 19 11 11 5 2-12-16-1-3 11 9 3 2 4-1-4-4 9 3h5v-2l-10-8-14-10-12-11-2-4v-3l5 2 1 2h2l2 4 9 7 17 11 10 7 3 1-3-12-7-14-4-5-11-7-13-6-13-5-9-6zm-830-6-5 15-4 9v9l-2-2-2-8-4-10-2-1 4 16 1 3v12l-2 10-1 2h-4l-1-2-4-31-2-7h-1v8l2 10 1 17-9-16-6-9-1 3 13 26 3 11v15l-3 24-3 12-4 28-1 2-3 1-1-25-4-12-6-11-13-19-3-6-1 4v7l3 5-6-2-2 1 1-6-2-4-3 8-3 10-2 11v20l3 16 7 16 9 12 10 11 5 10 4 13v72h-5l-1-13-5-18-6-10-14-15-9-14-5-8-2 2-4 19v30l4 20 7 16 6 9 7 7 11 9 8 9 7 15 4 12 4-1 3-3 5-2 2-10 4-12 8-14 13-16 8-14 6-12 3-1-1 8-6 12-9 12-10 14-6 12-2 11 2 2 13-12 4-2-10 10-7 10-1 4 7-6 13-12 8-10 7-15 5-26 1-16-1-21-2-4-8 11-11 12-10 9-6 8-5 9-2 6-2 16h-4v-57l4-14 7-14 4-5 19-14 9-9 7-11 6-15 5-22 1-9v-17l-4 1-7 7-22 15-8 7-6 8-3 9-3 12h-4l1-13 3-29 4-17 8-16 5-6v-2l4-2 9-5 19-10 12-11 7-10 9-19 5-15 2-7v-8l-6 1-10 6-16 6-13 7-7 6-5 12-6 16-2 5 7-6 13-9 15-10 9-8 2-5 5-1-2 7-7 8-15 10-11 8-10 9-6 8-5 10v2l-4-4-1-5-6-4-4-6v-10h2l-1 5 5-5 4-13 4-12 3-7 4-13v-15zm924 11-4 13-1 6v12h1l3-16 2-7v-8zm12 14-1 6 2-2zm-2 7m-4 9m-1 1 1 2zm-1 2 1 2zm-1 2m-1 2m-927 18m-1 1m-68 2 1 2zm-3 8 1 2zm63 1 1 2zm-79 265-1 1-1 9v20l1 12 2 3h2l1-9 2-1-1-12 5 3 9 18h2l2 4 14 14 1-3-3-8 3 1 6 7 1-3-4-15-7-10-9-9-8-7-11-11zm70 1m-1 1m981 19m-1 1-2 4 3-2zm-4 4-9 11-4 5 1 3 13-16 1-3zm-1039 11 1 4 1 3h2l2 5h3l-5-9zm57 7 1 8 2 4 1-3-2-9zm-9 1m974 11 1 4zm-39 1 1 5 1-4zm-951 5m1 2m938 1 8 16 2 1-3-9-5-8zm58 8m-1 1-4 5 1 3 4-6zm-47 8 1 2zm42 0-6 12 1 2 6-11zm-41 2 1 2zm1 2 2 6 3 4-1-5-3-5zm30 14-2 3 4-2zm12 0-4 4 5-2zm-6 4 1 2 1-2zm-56 1m55 1m-1 1m-2 3m-38 14 3 5 1-2-2-3zm4 6 1 2zm69 2 1 2zm-1 2m-1 1m-1 1m-1 1m-1 1m-2 3m-2 2m-2 1-13 10-9 7-9 8-7 13v5l4-2 6-7-2 14 8-6 10-9 7-9v-3l-9 2v2h-2l1-3v-2l12-13 5-7zm15 6-5 11v2h2l4-9zm-102 10 2 10 1 10 4 6 2 1 2-1-1-8-8-17zm30 9 1 4zm-36 1-1 1v10l3 7 3 9 6 13 1 3h2l-3-24-5-12-4-6zm22 7 2 7 3-1-3-5zm57 9m-1 1m-1 1m-1 1m-1 1m-2 1-3 4 4-2 1-2zm-4 4m-71 1-1 2 3 10 4 8 3-1-3-5-5-14zm69 0 1 2 1-2zm-80 20m1 2 2 4-1-4zm2 4 1 4 3 5 1-2-4-7zm-5 8m10 1 1 4 1-2zm-4 8 1 7 1 6-6-8-5 2-5 6-3 4v10l3 10 10 19 3 8h4l-2-6 1-6 4-8v-28l1-5-6-11zm-14 45 1 5 4 9 1-3-5-11zm-786 3 1 2zm-1 3m-1 4m-1 1 1 3zm-1 3m734 67m-1 1m-671 1m-44 1 1 3 2-3zm45 0m1 1 1 2zm2 5m1 1 1 2zm1 2 1 5 1-3zm2 5 1 9-2 6 1 2v10l-5 30-2 18 4 13 1 2v8 3l3 3 2 6h1l1-13 4-14 4-17 1-8v-13l-3-20-6-17-4-8zm-13 1-7 14-3 10-1 14v10l3 10h1v-7l5 2 3 6h1l4-20 1-4v-30l-3-1-2-4zm685 8 1 7 2 16 3-1-1-9-4-13zm-676 1 1 2zm-105 9 2 5-3 8-3 5 3 12 5 9 9 13 10 9 14 7 11 3 15 2 7 1v-7l-5-8-8-7-10-6-26-12-12-8-5-4-2-3 1-5 1-2h2l10 13 11 7 23 10 11 6 8 6v-6l3-4 1-7-1-2h2v3h4l-1-4-2-6-3-3-3 9 1 5-5-4-5-1-1 3-4-1-9-14-9-9-10-5-23-6zm773 3-1 3v12h2l1-15zm-697 11-2 2 2 3 3-1v-4zm5 30m674 15v5l2 1v-5zm-655 20 1 4 3-1-3-3zm1 8-1 5 2-3zm659 0 1 2zm-1 2-4 12 1 3 3-7 1-8zm-660 4v3zm-2 3-2 3h3z" fill="#37383D"/>
<path transform="translate(654,835)" d="m0 0 5 2 4 5 8 7 18 18 8 7 12 12 8 7 22 22 8 7 15 15 8 7 8 8 8 7 11 11 8 7 12 12 8 7 8 8 8 7 7 7 8 7 9 9 8 7 19 19 8 7 13 13 8 7 9 9 8 7 14 14 8 7 14 14 8 7 7 7 8 7 16 15 7 7 8 7 10 10 8 7 11 11 8 7 9 9 8 7 16 15 17 16 10 10 8 7 17 17 8 7 9 8 2 3-1 4-7 11-21 28-9 11-9 10-7 8-11 12-15 16-21 21h-2v2l-8 7-10 9-6 5h-2v2l-9 7h-2v2l-5 2v2l-10 7h-2v2l-21 14-6-2-15-11-14-10-12-10-8-7-14-12-8-7v-2l-4-2-31-31-9-11-10-10-8-10-9-11-10-13-26-36-24-36-9-15-16-28-11-21-12-26-7-14-11-26-10-25-6-17-7-20-9-31-9-36-7-31-5-26-6-43-4-41z" fill="#EA3F39"/>
<path transform="translate(1338,348)" d="m0 0 10 1 23 5 15 5 12 6 12 11 6 8 4 9 2 7 1 8 2 37 3 17 10 27 4 4 2-13 8-24 2-10v-16l-1-18 4 2 10 15 10 18 8 19 5 19 1 6v27l-5 16-10 19-6 12-2 8v16l4 27 2 4 4-5 9-17 8-13 4-12 2-12 1-11h3l6 13 6 18 6 25 1 10v12l-2 15-5 16-6 11-12 14-7 10-4 10-2 10v30l1 5 7-6 9-12 9-10 7-14 4-12 2-8 2-1 3 8 5 23 1 17v30l-5 18-8 15-8 10-6 6h-2v2l-8 7-6 7-5 9-4 13v29l11-11 11-9 9-9 9-17 4-9 3 1 3 21v17l-2 20-3 16-4 12-8 16-12 13-8 7-10 7-8 7-6 11-5 14v7l-4 18 3-2 1-12 1-2h2l1-3 2 1v10l7-6 10-7 8-7 10-14 6-8 2-1 1 2v13l-1 19-3 21-5 18-8 16-8 11-4 5-8 7-3 3-5 1v2h7l1 1 1 11 3 3 6 2-5 33-7 25-8 17-7 10-2 3h-2l-2 4-9 8-11 7-22 8-6 4-10 11-4 10v3l6-1 2 2 2 7 3 1 10-3 10-6 4-5-1-7 4-9 6 2 6 3-1 12-6 20-6 16-8 16-7 11-15 15-10 6-18 6-17 4-9 5-6 6-1 3 4 2 16 16 9 13 4 8-1 5-2 4-1 7v17l-3 36-5 36-2 10-8 4-29 9-40 10-43 9-55 9-66 9-38 4h-13l1-6 7-15 6-16 5-11 4-11 13-33 3-6 9-2 27-3 26-4 64-12 44-10 43-11 25-7-1-1-14 4-7-1-4-1-3-3-2 5-16 5-38 9-30 6h-4l1-7 11-30 6-19 4-16 4 1-1-4h-2l-3-6-1-1v-13l5-10 8-5 6-2h13l21 5 4 1-1-8-5-17-1-8v-16l3-18 7-18 10-19 12-17 4-2 1 6v16l1 12 7 17 5 14v4h3l2-6 6-10 4-12 1-6v-13l-3-9-11-24-3-14-1-16 4-25 9-24 8-16 4-7 4 1 3 4 5-8 2-6h3v-2l-4-10-3-17v-21l5-25 8-24 4-9 4-1 5 18 2 10 5 9 9 12 3 5 1-10 3-1 5 3 1-10v-12l-2-9-5-10-14-18-6-12-5-18-1-8v-22l3-22 6-24 4-2 8 22 9 14 4 5 5 5 5 6 3 6 2 1 1-10 2-4 1-13-3-15-5-12-9-10-11-11-9-14-5-13-4-17v-38l3-20 1-3 4 2 8 16 6 9 10 10 8 7 6 8v2l5 1-1-27-3-14-5-10-9-10-16-12-10-11-6-10-5-11-5-18-2-14-1-17v-17l2-2 5 5 8 11 9 9 17 11 10 8 2 1v-10l-4-20-6-12-5-6-10-7-16-8-11-8-9-9-8-13-7-15-6-18-3-11-1-7v-11l4 2 6 5v2l4 2 11 7 20 7 13 9 2 1-5-17-9-25-5-9-6-7-9-7-5-4-8-11-5-11-5-21-6-29-8-18-7-11-9-11zm13 8 1 4 8 13 6 13 4 16 6 33 5 14 7 9 7 7 10 8 6 8 7 14 15 40 6 18 2 2-2-12-3-21 4 8 3 7 2-4 1-6-7-25-13-32-5-18-2-20-2-31-4-13-6-9-9-8-12-7-12-4-19-4zm110 75-2 19-2 8-7 21-2 8v25l2 10-2 9 1 10 2-2 6-18 4-13 3-8 1-7 1-29 7 3 1 1h6l-3-10-6-14-9-13zm13 61-4 10-2 10 4-4 3-8v-8zm7 5v7h1v-7zm-109 14 1 10 9 27 11 19 11 11 5 2-12-16-1-3 11 9 3 2 4-1-4-4 9 3h5v-2l-10-8-14-10-12-11-2-4v-3l5 2 1 2h2l2 4 9 7 17 11 10 7 3 1-3-12-7-14-4-5-11-7-13-6-13-5-9-6zm94 5-4 13-1 6v12h1l3-16 2-7v-8zm12 14-1 6 2-2zm-2 7m-4 9m-1 1 1 2zm-1 2 1 2zm-1 2m-1 2m35 316m-1 1-2 4 3-2zm-4 4-9 11-4 5 1 3 13-16 1-3zm-17 30 1 4zm-39 1 1 5 1-4zm-12 8 8 16 2 1-3-9-5-8zm58 8m-1 1-4 5 1 3 4-6zm-47 8 1 2zm42 0-6 12 1 2 6-11zm-41 2 1 2zm1 2 2 6 3 4-1-5-3-5zm30 14-2 3 4-2zm12 0-4 4 5-2zm-6 4 1 2 1-2zm-56 1m55 1m-1 1m-2 3m-38 14 3 5 1-2-2-3zm4 6 1 2zm69 2 1 2zm-1 2m-1 1m-1 1m-1 1m-1 1m-2 3m-2 2m-2 1-13 10-9 7-9 8-7 13v5l4-2 6-7-2 14 8-6 10-9 7-9v-3l-9 2v2h-2l1-3v-2l12-13 5-7zm15 6-5 11v2h2l4-9zm-102 10 2 10 1 10 4 6 2 1 2-1-1-8-8-17zm30 9 1 4zm-36 1-1 1v10l3 7 3 9 6 13 1 3h2l-3-24-5-12-4-6zm22 7 2 7 3-1-3-5zm57 9m-1 1m-1 1m-1 1m-1 1m-2 1-3 4 4-2 1-2zm-4 4m-71 1-1 2 3 10 4 8 3-1-3-5-5-14zm69 0 1 2 1-2zm-80 20m1 2 2 4-1-4zm2 4 1 4 3 5 1-2-4-7zm-5 8m10 1 1 4 1-2zm-4 8 1 7 1 6-6-8-5 2-5 6-3 4v10l3 10 10 19 3 8h4l-2-6 1-6 4-8v-28l1-5-6-11zm-14 45 1 5 4 9 1-3-5-11zm-56 81m-1 1m9 25 1 7 2 16 3-1-1-9-4-13zm-8 13-1 3v12h2l1-15zm-18 56v5l2 1v-5zm5 28 1 2zm-1 2-4 12 1 3 3-7 1-8z" fill="#C5C5C5"/>
<path transform="translate(671,673)" d="m0 0h138l8 7 16 16 8 7 10 10 8 7 14 14 8 7 7 7 8 7 21 21 8 7 14 14 8 7 17 16 18 18 8 7 14 14 8 7 13 13 8 7 16 15 22 22 8 7 9 9 8 7 10 10 8 7 16 16 8 7 7 7 8 7 17 17 8 7 16 16 8 7 15 15 8 7 15 14 9 9 8 7 19 19-1 7-11 28-14 33-7 16-10 19-12 23-21 36-22 34-3 4h-2l-7-8-14-13-8-7-8-8-8-7-8-8-8-7-7-6-23-23-8-7-10-10-8-7-12-12-8-7-12-12-8-7-14-14-8-7-9-9-8-7-10-10-8-7-12-12-8-7-12-12-8-7-12-11-11-11-8-7-13-13-8-7-16-16-7-8-14-14v-2l4-1 9 4h5l5 1h10l15-2 11-2 8-7 5-5 3-4h2l1-3 5-1 2-5 2-2-1 7-18 41-2 4 1 5 13 13 5 4v2l4-1 13-9 13-10 14-10 19-14 34-25 21-16 19-13 3-3-17-17-4 1-19 14-36 27-19 14-13 10-8 6-1-4 13-28 12-27 18-41 8-18-6-7-10-9-4-5-4 1-17 13-18 14-19 14-16 13-14 10-8 7h-3l2-6 9-20 15-33 20-45 5-11-2-4-18-18h-3l-9 21-9 20-15 34h-2v-8l-1-8-1-5-3-2-12 1-4 1-1 3-3 3-8 15-4 2-1 4-5 3h-2l2-5 4-7 3-7 1-5v-17l-3-10-8-16-21-33-4-12v-7l4-8 6-5 2-1h11l10 5 8 7 6 9 3 8v18l14 8 9 5 2-3 2-10v-11l-4-16-7-14-11-14-10-9-16-8-11-3h-13l-10 3-11 7-8 10-6 12-2 8v16l5 15 12 20 14 22 5 12v7l-3 7-6 8-9 3-9-1-10-5-12-11-8-11-4-11-1-11 3-8-1-4-22-13-2 2-3 14v16l4 15 7 14 10 13 6 8 8 8 2 1v2l3 1-5 2h-3v-2l-8-1v2l-4 1-1 3h-2l1-5-5 4-5-1-2-1v-2l-4-2-10-9-17-16-12-12-8-7-7-7-2-1v-3h-2v-20l4-47 5-36 7-39z" fill="#C5C5C5"/>
<path transform="translate(671,673)" d="m0 0h138l8 7 16 16 8 7 10 10 8 7 14 14 8 7 7 7 8 7 21 21 8 7 14 14 8 7 17 16 18 18 8 7 14 14 8 7 13 13 8 7 16 15 22 22 8 7 9 9 8 7 10 10 8 7 16 16 7 8 12 12v1l-7-1-9-3-7 2-5-4v-2l-4-1-4-5-8-7-4-3-4-1-2 4-19 12-20 13-22 14-46 30-25 16-4 1 2-4 6-7 1 2 9-9 4-5h2l-1-4 1-2h-5v1h-8l7 2v2h2l-2 4-2 1-1-3-7-1-6 1h-8l4-2 7-1-3-1-9 1-11 2-9 3-6 3-9 2-4 4-2 8-4 1-4-3v-2l-4-2-8-7-5-3-11-11-8-7-16-16-7-8-14-14v-2l4-1 9 4h5l5 1h10l15-2 11-2 8-7 5-5 3-4h2l1-3 5-1 2-5 2-2-1 7-18 41-2 4 1 5 13 13 5 4v2l4-1 13-9 13-10 14-10 19-14 34-25 21-16 19-13 3-3-17-17-4 1-19 14-36 27-19 14-13 10-8 6-1-4 13-28 12-27 18-41 8-18-6-7-10-9-4-5-4 1-17 13-18 14-19 14-16 13-14 10-8 7h-3l2-6 9-20 15-33 20-45 5-11-2-4-18-18h-3l-9 21-9 20-15 34h-2v-8l-1-8-1-5-3-2-12 1-4 1-1 3-3 3-8 15-4 2-1 4-5 3h-2l2-5 4-7 3-7 1-5v-17l-3-10-8-16-21-33-4-12v-7l4-8 6-5 2-1h11l10 5 8 7 6 9 3 8v18l14 8 9 5 2-3 2-10v-11l-4-16-7-14-11-14-10-9-16-8-11-3h-13l-10 3-11 7-8 10-6 12-2 8v16l5 15 12 20 14 22 5 12v7l-3 7-6 8-9 3-9-1-10-5-12-11-8-11-4-11-1-11 3-8-1-4-22-13-2 2-3 14v16l4 15 7 14 10 13 6 8 8 8 2 1v2l3 1-5 2h-3v-2l-8-1v2l-4 1-1 3h-2l1-5-5 4-5-1-2-1v-2l-4-2-10-9-17-16-12-12-8-7-7-7-2-1v-3h-2v-20l4-47 5-36 7-39z" fill="#C5C5C5"/>
<path transform="translate(1338,348)" d="m0 0 10 1 23 5 15 5 12 6 12 11 6 8 4 9 2 7 1 8 2 37 3 17 10 27 4 4 2-13 8-24 2-10v-16l-1-18 4 2 10 15 10 18 8 19 5 19 1 6v27l-5 16-10 19-6 12-2 8v16l4 27 2 4 4-5 9-17 8-13 4-12 2-12 1-11h3l6 13 6 18 6 25 1 10v12l-2 15-5 16-6 11-12 14-7 10-4 10-2 10v30l1 5 7-6 9-12 9-10 7-14 4-12 2-8 2-1 3 8 5 23 1 17v30l-5 18-8 15-8 10-6 6h-2v2l-8 7-6 7-5 9-4 13v29l11-11 11-9 9-9 9-17 4-9 3 1 3 21v17l-2 20-3 16-4 12-8 16-12 13-8 7-10 7-8 7-6 11-5 14v7l-4 18 3-2 1-12 1-2h2l1-3 2 1v10l7-6 10-7 8-7 15-21 3 1-1 29-2 4h-1v-22l-3 3-2 5-3 3h-2l-2 4-5 5-11 8-7 3-10 9-6 9-4 9-4 7h-2l1-6 6-27 4-20 7-19 6-10 7-8 8-4 12-9 8-8 9-15 3-9v-6l-2-1-3 3-7 12-6 9-9 7-12 3 1-5 1-3-8 15-5 9-2 4-1 5-3 6-4 4h-2l-2 5-5 6-6 1-1 2-2-2-3 2-1-2 1 23-2 15-7 29-4 16-2 1-1-22-2-10-7-15-3-3-6-10-5-10-3-10v-3l-3 2-6 18-4 19v39l6 13 8 14 6 10 4 12v15l-3 16-13 38-3 8h-3l1-8v-22l-2-9-7-15-6-13-5-19-2 1-8 18-5 15-3 11-1 11 1 23 8 20 6 13 2 10v16l-4 15-9 19-10 19-5 9-2 1 1-7 2-5 1-7v-10l-2-13-3-8-4-14-4-16v-9l-5 5-8 14-8 18-4 16-2 17-1 3 4 18 2 6v8l-2-3v-2h-2l-4-14-1-8v-16l3-18 7-18 10-19 12-17 4-2 1 6v16l1 12 7 17 5 14v4h3l2-6 6-10 4-12 1-6v-13l-3-9-11-24-3-14-1-16 4-25 9-24 8-16 4-7 4 1 3 4 5-8 2-6h3v-2l-4-10-3-17v-21l5-25 8-24 4-9 4-1 5 18 2 10 5 9 9 12 3 5 1-10 3-1 5 3 1-10v-12l-2-9-5-10-14-18-6-12-5-18-1-8v-22l3-22 6-24 4-2 8 22 9 14 4 5 5 5 5 6 3 6 2 1 1-10 2-4 1-13-3-15-5-12-9-10-11-11-9-14-5-13-4-17v-38l3-20 1-3 4 2 8 16 6 9 10 10 8 7 6 8v2l5 1-1-27-3-14-5-10-9-10-16-12-10-11-6-10-5-11-5-18-2-14-1-17v-17l2-2 5 5 8 11 9 9 17 11 10 8 2 1v-10l-4-20-6-12-5-6-10-7-16-8-11-8-9-9-8-13-7-15-6-18-3-11-1-7v-11l4 2 6 5v2l4 2 11 7 20 7 13 9 2 1-5-17-9-25-5-9-6-7-9-7-5-4-8-11-5-11-5-21-6-29-8-18-7-11-9-11zm13 8 1 4 8 13 6 13 4 16 6 33 5 14 7 9 7 7 10 8 6 8 7 14 15 40 6 18 2 2-2-12-3-21 4 8 3 7 2-4 1-6-7-25-13-32-5-18-2-20-2-31-4-13-6-9-9-8-12-7-12-4-19-4zm110 75-2 19-2 8-7 21-2 8v25l2 10-2 9 1 10 2-2 6-18 4-13 3-8 1-7 1-29 7 3 1 1h6l-3-10-6-14-9-13zm13 61-4 10-2 10 4-4 3-8v-8zm7 5v7h1v-7zm-109 14 1 10 9 27 11 19 11 11 5 2-12-16-1-3 11 9 3 2 4-1-4-4 9 3h5v-2l-10-8-14-10-12-11-2-4v-3l5 2 1 2h2l2 4 9 7 17 11 10 7 3 1-3-12-7-14-4-5-11-7-13-6-13-5-9-6zm94 5-4 13-1 6v12h1l3-16 2-7v-8zm12 14-1 6 2-2zm-2 7m-4 9m-1 1 1 2zm-1 2 1 2zm-1 2m-1 2m35 316m-1 1-2 4 3-2zm-4 4-9 11-4 5 1 3 13-16 1-3zm-17 30 1 4zm-39 1 1 5 1-4zm-12 8 8 16 2 1-3-9-5-8zm58 8m-48 9 1 2zm1 2 1 2zm1 2 2 6 3 4-1-5-3-5zm-20 19m14 19 3 5 1-2-2-3zm-9 53 2 7 3-1-3-5zm-37 53m6 9 1 7 1 6-6-8-5 2-5 6-3 4v10l3 10 10 19 3 8h4l-2-6 1-6 4-8v-28l1-5-6-11z" fill="#C5C5C5"/>
<path transform="translate(797,709)" d="m0 0h13l11 3 16 8 13 12 10 14 6 12 4 16v11l-3 13-2 1-11-6-12-7-1-1v-18l-4-9-6-9-9-7-7-3h-11l-6 4-4 6-1 3v7l4 12 10 16 14 22 7 16 1 5v17l-3 10-4 8-4 6 5-3h2l1-4 4-4 8-15 6-5 9-2 7 1 3 5v7l1 8-1 3h2l3-9 12-27 13-29 5-12 5 3 19 19-2 6-20 45-13 29-10 22-7 15 7-4 9-8 11-8 10-8 21-16 12-9 17-13 9-7 4 1 9 10 10 9 1 2-36 81-13 29-2 4v3l9-7 13-10 14-10 13-10 19-14 13-10 15-11 4 1 17 17-4 4-13 9-19 14-20 15-38 28-18 13-16 12-11 7-8-7-14-14 1-6 18-40 2-5v-3l-3 5-5 2-9 11-9 7-4 2-8 1-15 2h-14l-4-1-9-3-6-1 7 8 14 14h-3l-7-7-8-7-9-9-8-7-10-10-2-1v-2l-4-2-19-19-8-7-15-15-8-7-7-7-8-7-12-12-8-7-7-7-8-7-11-11-16-14-20-20v-3h2v3l4 2 8 8 3 2v2l4 2 19 19 8 7 7 7 7 5v2l7 1 6-4-2 6h2l1-4 2-1 2 1v-2h6l2 1v2l6-2-1-3-4-2-10-10-3-5-8-10-8-14-4-13-1-5v-16l4-16 2-1 22 13 2 2-1 6-2 5 1 11 5 13 11 13 10 8 11 4 10-1 6-4 5-8 1-4v-7l-5-12-12-19-14-23-5-15v-16l4-13 6-10 8-9 12-7z" fill="#C5C5C5"/>
<path transform="translate(804,1593)" d="m0 0 17 2 40 7 28 4 55 5 17 1h64l51-4 49-7 39-7 5-1h7l-2 11-12 44-11 42-4 13-10 2-61 6-30 2-25 1h-56l-47-2-46-4-38-4-3-5-11-44-11-40-5-18z" fill="#C5C5C5"/>
<path transform="translate(1521,897)" d="m0 0 3 2-1 9-4 9-7 12-11 11-15 10-2-1-3 2v3l-7 8-5 11-5 14-8 39-4 14 3-3 10-20 10-10 6-4 2 1-12 11-5 5-5 10v4l5-5 5-4-2 14 11-10 5-4 7-9 1-3-5 2h-4v2h-2l-1-4 14-15 5-7 4-5 5-4 1-5 4-3v22l1-9 1-23v-3l2 2v13l-1 19-1 8-3-3-5 11h2l2-4-2 12-4 13-8 17-11 13-8 7-11 6-15 9-7 7-8 13-6 15-10 32-5 14 3-2 5-10 6-8 10-9 14-8 10-5 9-7 10-10 2 3-3 19-4 16-7 18-9 15-6 7h-2l-1 3-10 8-30 12-8 6-6 7-8 13-8 17-9 21-8 13 5-3 10-13 8-7 17-7 16-6 11-8 8-6v7l-9 27-8 16-7 11-9 10-9 7-10 5-14 4-16 4-11 6-9 8-11 15-10 16-6 9-9-1-8-4 1-5 6-10 3-6h2l3-7 1-4h-1v-14l-2-9h-3l-2-9 2 2-1-9-4-14-1-11h1l3-20 5-16 8-16 8-14 4-2 3 19 3 10 1 7 1 16 2-1 2-4 2 13v10l-4 18 10-19 13-25 4-13 1-5v-16l-3-12-10-23-3-8-1-23 1-11 5-18 6-15 6-12h3l6 21 6 13 1 5 3 8h2l2 9v22l-2 8h3l1-6 13-37 3-12 1-7v-15l-4-12-8-14-7-11-5-13v-38l5-23 5-14 4-2 6 18 6 10 2 10 1 10 4 6h3l-4-13-2-6 3 3 6 13 2 10 1 21 4-16 8-33 1-16-1-17h3l2-2 2 2 8-4 6-9 6-5 3-7v-4l3-3 2-5h2l6-13 2 1 11-3 9-7 8-13 6-10zm-43 55 1 2 1-2zm-1 2m-1 1m-2 3m28 31m-61 28 1 4zm-36 1-1 1v10l3 7 3 9 6 13 1 3h2l-3-24-5-12-4-6zm79 16m-1 1m-1 1m-1 1m-1 1m-2 1-3 4 4-2 1-2zm-4 4m-71 1-1 2 3 10 4 8 3-1-3-5-5-14zm69 0 1 2 1-2zm-80 20m1 2 2 4-1-4zm2 4 1 4 3 5 1-2-4-7zm5 9 1 4 1-2zm-74 134m-1 1m1 38-1 3v12h2l1-15zm-18 56v5l2 1v-5zm5 28 1 2z" fill="#FCFCFC"/>
<path transform="translate(555,767)" d="m0 0 3 1-1 8-6 12-9 12-10 14-6 12-2 11h2l12-11 5-3-2 4-8 8-7 10v2l8-8 8-7 9-11 7-15 5-26 1-10h1v18l-3 15-6 14-7 10-9 10-3 3h-2l-2 4-4 5-5 10-2 6-1 9v21l3 27 2 14 1 1 2-10 2-14 5-12 7-9 11-14 5-11 1-4h2l1-4 3-1 2 2 3 18 1 10v35l-4 14-6 12-11 15-6 8-5 11-1 5v21l3 17 3 13 5 22 1 2 1-3 1-21 3-12 9-15 7-11 4-12 4-7h4l6 19 2 10 1 10v31l-2 9-5 12-7 12-7 14-3 9v13l3 14 12 36 5 12v2h2l-2-10v-25l8-20 5-10 4-11 2-11 3-1 8 16 7 20 3 16v22l-3 14-8 20-5 11h-3l1 2 2-1v21l7 21 7 14-1 2-3 8v5l-10-5-1 4-4-1-4-6 1-2 4 5 2-1-14-28-9-21-6-10-9-10-10-7-21-8-11-6-13-13-8-12-4-8-8-24-3-16v-12l5 5 9 7 10 6 11 6 15 10 8 11 7 12 1 1-1-7-5-15-8-26-5-13-7-11-8-9-9-6-16-8-11-9v-2h-2l-10-15-5-10-4-11-3-16-2-24v-9l7 6 7 8 11 9 10 7 12 10 12 23 3 4-1-9-7-28-2-12-4-15-8-15-9-10-15-11-8-7-8-9-9-17-4-15 1-3 3 3v-9l2-3v-10l4 1 5 8 5 10v2h2l7 8 9 9-3-11 4 1 6 7-3-14 1-3 5 11 3 12h2l-6-55-1-13 2 2 1 7 10-6h2v-7l5-15 8-14 13-16 8-14 6-12zm-32 82m-1 1m-63 35 1 4 1 3h2l2 5h3l-5-9zm57 7 1 8 2 4 1-3-2-9zm-9 1m-16 17m1 2m104 223 1 2zm-1 3m-1 4m-1 1 1 3z" fill="#C5C5C5"/>
<path transform="translate(607,1398)" d="m0 0 8 1 49 14 48 12 42 9 50 9 33 5 29 4 4 1 9 21 11 28 12 30 7 17v2h-13l-61-7-69-10-24-4-58-12-28-7-29-9-10-4-2-4-5-43-3-35z" fill="#C5C5C5"/>
<path transform="translate(1248,1345)" d="m0 0 4 4v3h2l1 4-4-1-2 11-6 21-9 25-5 15 43-9 40-10 5-1 1-7 2-1v5l6 1 7 1 16-4 1 2-23 7-44 11-33 8-44 9-30 5-15 3-30 4-19 2-3 3-8 21-9 22-5 13-6 14-5 13-5 12 43-4 60-8 64-10 39-8 34-8 35-10 16-6 3-16 5-38 3-45-4-1h4v-6l3-6h2l1 3v18l-3 38-3 26-5 28-4 5-11 5-30 9-33 8-48 10-78 13v4l14 25 4 8v8l-7 28-9 31-14 55-7 3-23 3-73 6-38 2h-42l-55-3-70-6-12-2-4-3-7-25-8-32-11-39-5-19v-7l8-14 10-18 1-5-45-7-44-8-39-8-39-10-30-10-6-4-4-16-5-32-3-41-1-19 1-5 4 2 2 2 1 4 3 2h-4l2 30 4 42 3 24 1 3 16 6 27 8 28 7 44 9 41 7 62 9 61 7 13 1-10-24-28-70-1-4-20-2-46-7-50-9-47-10-43-11-25-7-2-2h14l5-1v-7l-3-8 1-5 8-4h6l-1 5-8 2 1 6 3 13 7 3 66 15 16 3-5-11-6-16-7-21-6-21v-2h-3l1-4 5-5h1l7 28 10 30 9 21 3 3 23 5 57 9 31 4 6 12 11 28 17 41 9 21 2 4-1 5-14 24-8 13-1 5 12 2 32 2 24 1h65l47-3 15-2-7-13-15-25-3-6 1-6 9-20 16-39 15-38 2-5 5-2 36-4 55-9 16-4 5-5 8-20 10-30 6-25zm-444 248 1 8 13 46 14 55 2 2 38 4 46 4 47 2h56l42-2 66-6 16-2 3-3 11-42 11-40 6-23v-3h-7l-32 6-40 6-21 3-51 4h-64l-29-2-43-4-41-6-40-7z" fill="#17181D"/>
<path transform="translate(450,890)" d="m0 0h2l5 18 9 17 11 12 12 9 10 8 7 8 8 15 4 15 5 25 5 19v6l-5-5-10-20-4-5-14-11-10-7-10-9-9-10 1 21 2 16 3 14 7 16 9 14 1 3h2l5 5 9 7 16 8 9 7 9 11 6 12 3 8 8 26 6 18v5l-5-5-8-14-5-6-17-11-14-7-13-10-4-5v11l4 20 8 22 7 12 7 9 9 9 16 8 16 6 10 7 8 8 6 9 8 18 6 14 6 11 5 10-1 2-4-2-14-16-5-4-8-4-23-6-3-1 2 3-3 8-3 5 3 12 5 9 9 13 9 8 14 7 11 3 15 2 7 2-2-9-4-6-7-6-10-6-26-12-12-8-6-5-2-3 1-5 2-3 3 1 9 12 11 7 23 10 11 6 7 6 1-7 2-2 1-9h2v3h4l-4-8v-2h2l8 16 3 5 2 1-4-13-1-5v-18l1-7h1v23l2 5 1-2 5 1 3 6 5-23v-30l-6-5-3 9-1-3 3-11v-5l-2 3-3 15-3 5-1-2 4-13 2-31 4 2 9 11 10 17 9 21 3 12 1 7v23l-3 15-3 8v6l19-4 14-2 9 2 8 5 4 5 3 9-1 13-4 2-2 6h3l5 16 7 23 6 16 5 11 1 5h-8l-39-9-38-9-5-3-3-13-1-6 4-2h5v-2l-3-1 3-1-7 1-6 3 1 6 2 6v7l-6 2h-16l-23-7-5-3-2-5-4-4 4-11 8-12 11-12 8-7 2-2-1-4-7-6-8-4-24-6-12-5-13-9-9-10-9-14-8-17-8-22-3-14-1-8 2-2 5 5 8 9 10 7 12 5 18 6 8 5-6-16-8-17-11-12-12-6-21-9-11-8-9-9-9-14-7-16-6-20-3-16-2-17v-5l2-1 5 5 10 14 9 7 20 10 11 8 2 1-3-14-5-16-7-13-5-6-14-9-14-7-12-11-8-10-9-17-6-21-3-18-1-32 1-3 4 2 12 19 2 4 4 2 17 12 10 9 5 3-2-14-5-21-4-10-8-10-10-7-12-9-12-12-7-12-6-16-1-9zm204 325m1 1m1 1 1 2zm2 5m1 1 1 2zm1 2 1 5 1-3zm2 5 1 9-2 6 1 2v10l-5 30-2 18 4 13 1 2v8 3l3 3 2 6h1l1-13 4-14 4-17 1-8v-13l-3-20-6-17-4-8zm-4 10 1 2zm-24 53m19 35 1 4 3-1-3-3zm1 8-1 5 2-3zm-2 6v3zm-2 3-2 3h3z" fill="#191E48"/>
<path transform="translate(898,785)" d="m0 0 5 3 19 19-2 6-20 45-13 29-10 22-7 15 7-4 9-8 11-8 10-8 21-16 12-9 17-13 9-7 4 1 9 10 10 9 1 2-36 81-13 29-2 4v3l9-7 13-10 14-10 13-10 19-14 13-10 15-11 4 1 17 17-4 4-13 9-19 14-20 15-38 28-18 13-16 12-11 7-8-7-14-14 1-6 18-40 13-30 8-18 11-24-1-1-10 8-52 40-20 15-8 7-4 3-5-1-10-9v-2l-4-2-6-7 2-6 9-21 32-72 11-25 13-29z" fill="#010202"/>
<path transform="translate(686,666)" d="m0 0h55l570 1v3h-129l-5-1h-81v1h-102l-157-1v2l-17 1 2 5 29 29 2 1v2h2v2l4 2 22 22 8 7 9 9 8 7 11 11 8 7 15 14 13 13 2 1v2l4 2 11 11 8 7 21 21 8 7 14 14 8 7 17 17 8 7 32 32v2h2v2h2v2h2l7 10 15 14 5 5-1 2-10-10-8-7-10-10-8-7-9-9-8-7-25-25-8-7-16-15-10-10-8-7-14-14-8-7-21-21-8-7-17-16-11-11-8-7-21-21-8-7-7-7-8-7-14-14-8-7-10-10-8-7-16-16-2-1-138-1-2 12-7 39-4 31-4 47v25l4 2 12 12 3 2v2l4 2 10 10 8 7 11 11 8 7 7 7 8 7 12 12 8 7 7 7 8 7 15 15 8 7 15 15 2 1v2l4 2 14 14 8 7 9 9 8 7 12 11 14 14 8 7 13 13 8 7 13 13 8 7 12 11 10 10 8 7 12 12 8 7 10 10 8 7 9 9 8 7 14 14 8 7 12 12 8 7 12 12 8 7 10 10 8 7 13 13 4 3v2l4 2 9 9 8 7 8 8 8 7 8 8 8 7 12 11 3 3v2h2l2-4 22-34 14-24 14-25 6-12 10-19 13-30 11-27 8-21 1-4h3v-4l5-2-2 9-9 24-12 28-9 20-12 25-11 22-13 23-11 19-12 19-17 25-13 18-12 16-11 14-22 26-14 15-11 12-21 21-8 7-10 9-11 9-13 11-19 14-19 13-6-1-16-11-13-10-14-11-13-11-14-12-13-12-29-29-7-8-11-12-9-11-11-13-24-32-12-17-12-18-12-19-15-26-16-29-14-28-14-31-16-40-10-28-11-34-10-38-8-36-7-41-3-22-4-47-1-28v-41l2-38 3-34 7-44 5-25 3-7zm-32 169v48l4 41 4 28 4 25 8 39 8 33 5 17 7 25 5 13 3 9 7 20 8 20 13 30 14 30 20 38 14 24 11 17 12 18 11 16 13 18 9 12 10 13 11 13 8 10 10 10 9 11 7 8 8 7 15 15h2l2 4 8 7 15 13 12 10 13 10 14 10 11 7 6-2 12-9 5-3v-2l4-2 8-5v-2l5-2v-2l4-2 7-5v-2l4-2 10-9 8-7 4-3v-2l4-2 28-28 7-8 7-7 7-8 9-10 8-10 11-14 9-12 11-16 2-3-1-4-5-6-8-7-13-12-15-15-8-7-13-13-8-7-9-9-8-7-16-15-17-16-8-8-8-7-10-10-8-7-10-10-8-7-31-29-11-11-8-7-14-14-8-7-9-9-8-7-13-13-8-7-19-19-8-7-9-9-8-7-7-7-8-7-8-8-8-7-12-12-8-7-11-11-8-7-8-8-8-7-15-15-8-7-22-22-8-7-12-12-8-7-23-23-4-3z" fill="#08090B"/>
<path transform="translate(1338,348)" d="m0 0 10 1 23 5 15 5 12 6 12 11 6 8 4 9 2 7 1 8 2 37 3 17 10 27 4 4 2-13 8-24 2-10v-16l-1-18 4 2 10 15 10 18 8 19 5 19 1 6v27l-5 16-10 19-6 12-2 8v16l4 27 2 4 4-5 9-17 8-13 4-12 2-12 1-11h3l6 13 6 18 6 25 1 10v12l-2 15-5 16-6 11-12 14-7 10-4 10-2 10v30l1 5 7-6 9-12 9-10 7-14 4-12 2-8 2-1 3 8 5 23 1 17v30l-5 18-8 15-8 10-6 6h-2v2l-8 7-6 7-5 9-4 13v29l11-11 11-9 9-9 9-17 4-9 3 1 3 21v17l-2 20-3 16-4 12-8 16-12 13-8 7-10 7-8 7-6 11-5 14v7l-4 18 3-2 1-12 1-2h2l1-3 2 1v10l7-6 10-7 8-7 15-21 3 1-1 29-2 4h-1v-22l-3 3-2 5-3 3h-2l-2 4-5 5-11 8-7 3-10 9-6 9-4 9-4 7h-2l1-6 6-27 4-20 7-19 6-10 7-8 8-4 12-9 8-8 9-15 6-18 2-8v-48l-4 5-7 9-9 10-7 8-6 4-8 9-5 11-5 16-3 1 4-44 3-23 4-12 7-11 11-11 8-7 8-9 7-14 4-15 1-8v-33l-2-18-1-4-3 1-4 9-7 12-7 9-5 5-8 10-4 8-4 21-2 4h-2l-1-31v-42l4-12 4-8 8-11 9-10 7-12 3-9 2-10v-31l-4-20-6-21-3-1-3 15-4 10-9 14-8 16-5 33-3-1-7-47-2-10v-20l2-10 5-12 9-17 5-14 1-6v-27l-5-22-3-9h-2l-6-14-8-12-2 18-2 8-6 17h-2l-2 11-1 4v20l1 14-3-1-3-6-4-15-13-32-5-18-2-20-2-31-4-13-6-9-8-7-12-7-12-4-23-5 6 11 5 8 5 11 4 16 6 33 5 14 7 9 11 10 8 7 8 13 8 20 4 16 10 33-3 1-5-10-4-4-5-8-11-7-13-6-13-5-9-6-3-1 4 17 7 20 5 12 7 11 8 8 11 8 14 6 8 6 5 5 5 6 4 8 4 13 5 33 1 8v11l-3-1-7-20-5-8-9-8-10-7-12-9-9-8-2-1 1 21 4 25 6 16 5 9 8 10 12 9 9 7 7 8 8 15 3 15v46l-1 8h-3l-2-5-3-15-6-12-7-9-5-5-8-7v-2h-2l-6-8-5-8-2-1-1 25v17l2 15 4 14 9 16 12 13 10 11 6 12 1 3v33l-4 33-2 7-2-2-3-21-5-12-6-10-9-10-7-10-5-9-4-4-2 19-2 22v17l4 21 7 13 14 18 6 10 2 6 1 17-2 15-7 29-4 16-2 1-1-22-2-10-7-15-3-3-6-10-5-10-3-10v-3l-3 2-6 18-4 19v39l6 13 8 14 6 10 4 12v15l-3 16-13 38-3 8h-3l1-8v-22l-2-9-7-15-6-13-5-19-2 1-8 18-5 15-3 11-1 11 1 23 8 20 6 13 2 10v16l-4 15-9 19-10 19-5 9-2 1 1-7 2-5 1-7v-10l-2-13-3-8-4-14-4-16v-9l-5 5-8 14-8 18-4 16-2 17-1 3 4 18 2 6v8l-2-3v-2h-2l-4-14-1-8v-16l3-18 7-18 10-19 12-17 4-2 1 6v16l1 12 7 17 5 14v4h3l2-6 6-10 4-12 1-6v-13l-3-9-11-24-3-14-1-16 4-25 9-24 8-16 4-7 4 1 3 4 5-8 2-6h3v-2l-4-10-3-17v-21l5-25 8-24 4-9 4-1 5 18 2 10 5 9 9 12 3 5 1-10 3-1 5 3 1-10v-12l-2-9-5-10-14-18-6-12-5-18-1-8v-22l3-22 6-24 4-2 8 22 9 14 4 5 5 5 5 6 3 6 2 1 1-10 2-4 1-13-3-15-5-12-9-10-11-11-9-14-5-13-4-17v-38l3-20 1-3 4 2 8 16 6 9 10 10 8 7 6 8v2l5 1-1-27-3-14-5-10-9-10-16-12-10-11-6-10-5-11-5-18-2-14-1-17v-17l2-2 5 5 8 11 9 9 17 11 10 8 2 1v-10l-4-20-6-12-5-6-10-7-16-8-11-8-9-9-8-13-7-15-6-18-3-11-1-7v-11l4 2 6 5v2l4 2 11 7 20 7 13 9 2 1-5-17-9-25-5-9-6-7-9-7-5-4-8-11-5-11-5-21-6-29-8-18-7-11-9-11zm89 677 2 7 3-1-3-5zm-37 53m6 9 1 7 1 6-6-8-5 2-5 6-3 4v10l3 10 10 19 3 8h4l-2-6 1-6 4-8v-28l1-5-6-11z" fill="#191B23"/>
<path transform="translate(1514 1e3)" d="m0 0h1v11l-5 20-7 16-9 13-5 6-8 7-3 3-5 1v2h7l1 1 1 11 3 3 6 2-5 33-7 25-8 17-7 10-2 3h-2l-2 4-9 8-11 7-22 8-6 4-10 11-4 10v3l6-1 2 2 2 7 3 1 10-3 10-6 4-5-1-7 4-9 6 2 6 3-1 12-6 20-6 16-8 16-7 11-15 15-10 6-18 6-17 4-9 5-6 6-1 3 4 2 16 16 9 13 4 8-1 5-2 4-1 6-22 7-4-1-14 4-7-1-4-1-3-3-2 5-16 5-38 9-30 6h-4l1-7 11-30 6-19 4-16 4 1-1-4h-2l-3-6-1-1v-13l5-10 8-5 6-2h13l21 5 4 1 1-2 4-1 2 10v9l-2 10-2 6h-2l-2 6-7 12v3l10 4 6 1 2-4 11-18 10-14 10-11 14-8 24-6 13-5 11-8 7-7 7-11 7-12 9-24 3-10v-6l-12 10-8 5-22 8-12 6-9 10-6 8-2 2h-3l2-5 7-12 10-24 9-17 8-11 8-7 10-5 23-9 10-8 7-8 7-11 6-12 6-17 4-21 1-9h-2l-12 12-13 8-14 7-10 8-6 7-4 7-5 8h-2l1-6 6-16 5-19 8-20 6-10 9-10 11-7 11-6 11-8 9-10 6-10 5-11 4-13 3-15z" fill="#171D49"/>
<path transform="translate(1068,922)" d="m0 0 5 2 15 15 8 7 10 10 8 7 16 16 7 8 12 12v1l-7-1-9-3-7 2-5-4v-2l-4-1-4-5-8-7-4-3-4-1-2 4-19 12-20 13-22 14-46 30-25 16-4 1 2-4 6-7 1 2 9-9 4-5h2l-1-4 1-2h-5v1h-8l7 2v2h2l-2 4-2 1-1-3-7-1-6 1h-8l4-2 7-1-3-1-9 1-11 2-9 3-6 3-9 2-4 4-2 8-4 1-4-3v-2l-4-2-8-7-5-3-11-11-8-7-16-16-7-8-14-14v-2l4-1 9 4h5l5 1h10l15-2 11-2 8-7 5-5 3-4h2l1-3 5-1 2-5 2-2-1 7-18 41-2 4 1 5 13 13 5 4v2l4-1 13-9 13-10 14-10 19-14 34-25 21-16 19-13 7-3h10v-9l1-3h-2z" fill="#FBFBFB"/>
<path transform="translate(1097,976)" d="m0 0 5 2 17 17 6 5-1 9-11 29-15 40-18 47-15 39-4 10-7-6-8-8-8-7 1-9 12-31-1-4-18-18-2-1v-2h-2v-2l-4-2-10-10-5-4-2-3-5 2-15 10-14 9-4-1-16-16 1-3 11-6 46-30 34-22 22-14 20-13z" fill="#010203"/>
<path transform="translate(797,709)" d="m0 0h13l11 3 16 8 13 12 10 14 6 12 4 16v11l-3 13-2 1-11-6-12-7-1-1v-18l-4-9-6-9-9-7-7-3h-11l-6 4-4 6-1 3v7l4 12 10 16 14 22 7 16 1 5v17l-3 10-4 8-8 10-10 8-9 4-5 1h-14l-14-4-10-5-13-10-7-6-11-14-8-14-4-13-1-5v-16l4-16 2-1 22 13 2 2-1 6-2 5 1 11 5 13 11 13 10 8 11 4 10-1 6-4 5-8 1-4v-7l-5-12-12-19-14-23-5-15v-16l4-13 6-10 8-9 12-7z" fill="#010203"/>
<path transform="translate(932,816)" d="m0 0h12l7 2v2l9 3 8 1 14 14 8 7 14 14 8 7 13 13 8 7 16 15 20 20-1 3h2l-1 12-9 1-5-1-17-17-4 1-19 14-36 27-19 14-13 10-8 6-1-4 13-28 12-27 18-41 8-18-6-7-10-9-4-5-4 1-17 13-18 14-19 14-16 13-14 10-8 7h-3l2-6 9-20 15-33 6-14h2l2-4 6-5 8-13 9-10h2z" fill="#C5C5C5"/>
<path transform="translate(624,355)" d="m0 0h7l-2 5-9 14-6 15-5 23-5 25-6 14-9 11-10 9-7 6-8 16-10 27-10 32-1 5h2l2-6 4-7 1 3-6 17-3 6 7-7 27-18 8-7 3-5 5-1-1 7-8 9-15 10-11 8-10 9-6 9-5 10-4-2-1-7-5-2-4-5-2-5v-9l3 1v4l4-6 6-21 3-5 5-17v-13l-4 13-4 9v9l-2 3-2-4-2-9-4-9 5 17v12l-2 10-2 3-5-1-1-2-4-31-1-5 1 12 1 4 1 19-3-4-8-14-5-7 9 19 5 11 2 8v15h-1l-3-21-5-12-9-16-4-9-3-14v-21l4-20 5-13 8-16 7-12h4l2 21 6 18 5 18 1 9v9l-2 17h2l3-12 8-22 5-11 5-17 3-12 4-44 3-15 6-10 9-9 15-8 18-6zm-99 122 1 19 2 14 2 2 1-4v-14l-4-17zm-6 6-2 8v7l5 16 2 1-1-13-3-19zm34 24-7 11-5 13-6 25 1 2 5-6 4-10 7-24 2-11zm-12 64m-1 1m-8 11 1 2z" fill="#C5C5C5"/>
<path transform="translate(845,1603)" d="m0 0h10l41 6 43 4 17 1 43 1-5 5-12 4-5 3h-2l-2 4-4 6v5l-8 2v2h-2l-8 16-1 7-3 5-4 3h-2l-1 3-2 1h-9l-6-4v-38h7l15 4 5 1 5-8v-3l-11-3-18-2-3-3v-6l-4 1-2 6-19 1-4 2-5 10 7-3 7-1h10v4l-7 8-2 1-3 10v7l4 11 4 5v2l3 1 4 4 12 5-1 3-5 5 2 4 5 5h-13l-72-6-12-2-12-47-3-11-2-16 5-1 6 8 5 3 4-1 8-7h2l2-5 3-5v-7l-5-6z" fill="#FDFDFD"/>
<path transform="translate(1327,1210)" d="m0 0h2l3 19 3 10 1 7 1 16 2-1 2-4 2 13v10l-4 18 10-19 13-25 4-13 1-5 1-16 2 4v13h-2l-1 13-5 10v3l2-1v2l5 1 4-2 3-6 3-1 6-15 3-5v-3l4-2-2 6-6 13-9 21-8 13 5-3 10-13 8-7 17-7 16-6 11-8 8-6v7l-9 27-8 16-7 11-9 10-9 7-10 5-14 4-16 4-11 6-9 8-11 15-10 16-6 9-9-1-8-4 1-5 6-10 3-6h2l3-7 1-4h-1v-14l-2-9h-3l-2-9 2 2-1-9-4-14-1-11h1l3-20 5-16 8-16 8-14zm-1 3m-1 1m1 38-1 3v12h2l1-15zm-18 56v5l2 1v-5zm5 28 1 2z" fill="#C5C5C5"/>
<path transform="translate(1258,1158)" d="m0 0 2 2-1 5-13 30-11 23-6 10-8 16-21 36-22 34-3 4h-2l-7-8-14-13-8-7-8-8-8-7-8-8-8-7-7-6-23-23-8-7-10-10-8-7-12-12-8-7-7-7 3-1v2l4 2v2l4 2 20 20 8 7 12 12 11 9 7 5v-6l2-2h11l4 1 2-1v3h2v-2h2v-2l7-3 13-7 8-3 31-12 16-5 16-3 9-1h11l3 2 5-1 4-5 1-4 2-4 4-10 2-1 1-7 2-4z" fill="#C5C5C5"/>
<path transform="translate(1371,1399)" d="m0 0h1v32l-3 27-4 29-2 10-8 4-19 6-12 2-26 7-38 8-30 5-8 2-27 4h-9l-3-2 10-3 5-3 8-3 6-5 3-2h3l2-6 3-1 5 2 6-1 1-1v-8l-3-15-1-10h2v-3l4-1 3 3 2 5 5 28 2 10 6 2 1-11-2-20-2-11v-9l4-2 4 1 3 17 5 8 5 5h8l2-4 4-1 5 1 3-1 2-6 5-7 2 2 3 8 1 1 7-1 2-3-1-6-3-7v-12l5-4 5-1 1-3-3-7-1-1h-5l-5 5-3 1v-2h-8l-1 1h-9l-9 1-2-3 5-5 5-3 5-6-1-5-5-5 2-3 19-6 20-5 23-7 18-5z" fill="#FDFDFD"/>
<path transform="translate(872,737)" d="m0 0 6 1 10 10 8 7 21 21 8 7 14 14 8 7 17 16 3 3-1 2-9-2-6-3v-2l-7-1h-12l-5 5-9 11-6 10-5 6h-2l-1 5h-1l1-7 17-38-2-4-18-18h-3l-9 21-9 20-15 34h-2v-8l-1-8-1-5-3-2-12 1-4 1-1 3-3 3-8 15-4 2-1 4-5 3h-2l2-5 4-7 3-7 1-5v-17l-3-10-8-16-21-33-4-12v-7l4-8 6-5 2-1h11l10 5 8 7 6 9 3 8v18l14 8 9 5 2-3 2-10v-11l-4-16-7-14-2-3 1-3 10 7 3 1 1-4v-3z" fill="#FAFAFA"/>
<path transform="translate(973,1035)" d="m0 0h8l2 1v6h-2l-2 4-4 4h-2l-2 5-7 3-4 5v3l-6 3 2 4 14 14 5-1 27-18 5-2 2 4 3 1v2l4 2 10 10 2 1v2h2v2l4 2 18 18-1 6-12 31v6l3 4-3 3 1 5h2l-1 2-2 3-8 1-10-5-5-1-2 2-12-12-8-7-9-9-8-7-10-10-8-7-12-12-8-7-12-12-8-7-12-11-11-11-7-6h3l11 9 4 4h3l3-10 4-3 10-2 8-4 12-3 10-2h7v2l-7 2 15-1 4 4 3-4h-2l-1-2-8-2 3-1z" fill="#C5C5C5"/>
<path transform="translate(1167,1044)" d="m0 0 4 1 18 18 8 7 25 25 8 7 21 21 4 3-1 5-8 11-5 5-4-1-10-9-15-15-3-2-4 1-11 14-10 13-13 16-13 17-10 12-7 9-13 16-8 11h-4v-2l-4-2-16-16 1-5 20-25 10-13 13-16 10-13 11-13 9-12 7-9 5-6-1-4-23-23-5-4v-5l10-11z" fill="#010204"/>
<path transform="translate(1249,1108)" d="m0 0h11l6 4 7 6 1 5-2 10-11 27h-2l-3 7-2 4-2 6h-2l-1 8-4 6-1 5-6 5-4-1-2-1h-11l-21 3-18 5-17 7-16 6-9 4-15 8-3-1-1-1 2-4 5-9 9-11 20-25 11-14 13-16 4-5 5-5 6-7h2l2-4 7-8 5 3v2h2l5 5 6 5v2l4 2 9 8 5-1 13-16 1-6v-2l-4-2-3-3v-2h-2v-2h-2l-1-5z" fill="#FCFCFC"/>
<path transform="translate(1074,668)" d="m0 0h103l10 1h122l2 1v-2h2l5 18 6 35 5 38 2 20 1 17v80l-3 37-5 40-6 37-9 40-8 31-12 39-4 12-4 3-2-1v4l-5-1-23-23-8-7-12-12-8-7-15-14-12-12-8-7-16-16-8-7-17-17-8-7-7-7-8-7-5-5-3-5-11-11-8-7-5-7v-2h-2v-2h-2v-2h-2l-7-8-24-24h3l10 10 7 6 7 8 24 22 9 9 8 7 7 7 8 6 15 15 8 7 8 8 8 7 4 4v2h3l6 7 3 1 1 3 4 2 15 15v2l4 2 1 3 4 2v2h2v2l4 2 16 16 5 4 5 6 3 2v2l4 2 10 9h6l2-1 1-3h2l1-8 4-7 4-14 1-7h2l2-12 3-8 3-14 5-20 3-15 3-14 2-13 1-10 2-9 2-21 2-15 3-53v-59l-4-48-1-4-2-22-4-24-3-15-3-10-1-2-7-1h-474l-4 1-1 2-1-5 3-1h14v-2h237z" fill="#1A1F4B"/>
<path transform="translate(1168,1595)" d="m0 0h6l-1 8-5 17-5 18-4 14-9 37-2 12-1 2-35 3-55 5h-32l4-3 18-6 7-5 4-15 6-6 4 1 3 9 4 4h5l7-9 1-6-3 2-5-1-2-3v-9l1-3 6-1 5 2 9-2 10-8 7-8h2l2-5 3-3 2-5 8-10 2-5 1-13 3-2z" fill="#FDFDFD"/>
<path transform="translate(1410,861)" d="m0 0h1v9l-2 15-1 15v17l4 21 7 13 14 18 6 10 2 6 1 17-2 15-7 29-4 16-2 1-1-22-2-10-7-15-3-3-6-10-5-10-3-10v-3l-3 2-6 18-4 19v39l6 13 8 14 6 10 4 12v15l-3 16-13 38-3 8h-3l1-8v-22l-2-9-7-15-6-13-5-19-2 1-8 18-5 15-3 11-1 11 1 23 8 20 6 13 2 10v16l-4 15-9 19-10 19-5 9-2 1 1-7 2-5 1-7v-10l-2-13-3-8-4-14-4-16v-9l-5 5-8 14-8 18-4 16-2 17-1 3 4 18 2 6v8l-2-3v-2h-2l-4-14-1-8v-16l3-18 7-18 10-19 12-17 4-2 1 6v16l1 12 7 17 5 14v4h3l2-6 6-10 4-12 1-6v-13l-3-9-11-24-3-14-1-16 4-25 9-24 8-16 4-7 4 1 3 4 5-8 2-6h3v-2l-4-10-3-17v-21l5-25 8-24 4-9 4-1 5 18 2 10 5 9 9 12 3 5 1-10 3-1 5 3 1-10v-12l-2-9-5-10-14-18-6-12-5-18-1-8v-22l3-22 2-9zm17 164 2 7 3-1-3-5zm-37 53m6 9 1 7 1 6-6-8-5 2-5 6-3 4v10l3 10 10 19 3 8h4l-2-6 1-6 4-8v-28l1-5-6-11z" fill="#1F2129"/>
<path transform="translate(475,548)" d="m0 0 3 1 2 23 5 13 12 20 8 13v2h2l3-30 1-19h1v28h2l1-13h1v10l-3 17-3 15-3 21-2 3h-3l-1-2-1-23-4-12-6-11-13-19-2-4v9l3 6-9-2v-6l-3 4-3 10-2 11v20l3 16 7 16 9 12 10 11 5 10 4 13v64l-1 8-3 1-2-1-3-17-5-16-6-9-13-14-9-14-4-7-2 6-3 14v30l4 20 7 16 6 9 12 11 8 7 7 9 6 13 3 26 4 36v9h-2l-7-19-1-4h-2l-7-10-8-8-8-7-11-11-6-4-1 9v32h-2l-1 2-3-12-1-9v-21l3-25h4l8 19 7 10 13 12 8 7 5 6 3 2v-16l-2-16-4-13-6-10-5-6-11-9-8-8-7-11-5-11-6-21-1-5v-21l5-27 5-20h3l8 24 7 11 11 12 7 9 4 6 1 1 1-14v-15l-2-17-4-9-6-9-9-10-9-15-5-13-3-17v-16l4-24 6-21 7-18zm-3 26 1 2zm-3 8 1 2z" fill="#393A40"/>
<path transform="translate(1144,1137)" d="m0 0 2 3-12 16-11 13-9 12-10 12-8 10-2 1v5l8 8 8 7 8 8-4 4v-2l-3 1v-2l-11 1-2 7-5-2-11-10-8-7-12-12-8-7-16-16-6-5v-2l-5-1-12-11 1-4 7 2 8 4h8l2-4-1-1-2-5 1-4 1 2h4v3l4 2 5 5v2l4 2 3 3h2l6-17 3-6 3 1 3 8 3 2 10-2 6-2 19-3 10-5 3-1v-2l12-8z" fill="#FDFDFD"/>
<path transform="translate(565,775)" d="m0 0h2l1 4v15l-4 14-7 14-7 9-9 10-8 8-5 9-4 15v16l2 17 4-2 7-11 11-12 8-14 7-20h4l4 15 4 19 1 10v29l-4 16-5 12-10 14-11 15-2 5-2 14 1 15 3 16 2 4h2l9-17 9-13 6-14 4-19 3-1 6 14 6 19 4 22 1 9v9l-2 17-5 14-8 14-6 9-4 11-1 6v10l5 20 4 11 3-1 9-20 6-11 5-27 1-7h4l9 16 10 25 4 17 1 21-2 18-5 12-6 12-4 13v13l5 17 5 9 2-4 4-1 2 1 4-10 3-3 3-11 2-14 3 1v8l-5 17-4 12-1 1-1 9v16l4 15v3l-4-2-16-32-5-11-5-16v-19l4-12 8-19 3-11 1-6v-22l-3-16-7-20-7-14v-2l-2 1-3 15-7 16-7 15-2 6v25l1 10h-2l-6-14-12-36-3-14v-13l6-16 7-12 8-16 2-5 1-7v-31l-2-15-4-15-2-9-4 1-5 12-4 9-11 18-4 8-2 9-1 21-2 4-3-7-4-18-5-24-1-6v-21l3-10 5-9 8-10 9-13 5-11 3-12v-35l-3-22-2-7-3 1-1 3h-2l-1 7-6 11-11 13-7 11-4 12-2 15-2 6-2-2-4-29-1-12v-21l2-12 4-9 5-8 4-5 8-7 9-11 8-16 3-11zm64 488-2 2 2 3 3-1v-4z" fill="#23242E"/>
<path transform="translate(1514 1e3)" d="m0 0h1v11l-5 20-7 16-9 13-5 6-8 7-3 3-5 1v2h7l1 1 1 11 3 3 6 2-5 33-7 25-8 17-7 10-2 3h-2l-2 4-9 8-11 7-22 8-6 4-10 11-4 10v3l6-1 2 2 2 7 3 1 10-3 10-6 4-5-1-7 4-9 6 2 6 3-1 12-1 3h-2v-3l-4 1-11 9-8 5-22 8-12 6-9 10-6 8-2 2h-3l2-5 7-12 10-24 9-17 8-11 8-7 10-5 23-9 10-8 7-8 7-11 6-12 6-17 4-21 1-9h-2l-12 12-13 8-14 7-10 8-6 7-4 7-5 8h-2l1-6 6-16 5-19 8-20 6-10 9-10 11-7 11-6 11-8 9-10 6-10 5-11 4-13 3-15z" fill="#16171C"/>
<path transform="translate(738,1435)" d="m0 0 10 1 21 4 15 2 9 2 38 6 8 2 12 2 2 2-1 4-8 3-5 3-4 5-5 10h-15l-7-3h-7l-11 9-4 8h-2v6l-3 3h-3l2-14 3-11-1-5-5-2-6 2-4 2-1-1v-5l-11-3h-6l-6 4-4 4h-2l-2 6h-2l-6-15-7-6-3-1 1-4 6-3 6-4h2l3-9z" fill="#FDFDFD"/>
<path transform="translate(1251,1355)" d="m0 0 5 2 10 9 14 8 9 4 24 6 9 2 1 2-4 10-2 9-16 5-38 9-30 6h-4l1-7 11-30 6-19z" fill="#C2C2C4"/>
<path transform="translate(725,1356)" d="m0 0h3l5 16 7 23 6 16 5 11 1 5h-8l-39-9-38-9-5-3-3-13-1-6 4-2 18-4 18-6 13-7 13-11z" fill="#C2C2C3"/>
<path transform="translate(757,765)" d="m0 0 2 2 2 9h2l6 12 15 24 8 13 4 10v7l-3 7-6 8-9 3-9-1-10-5-12-11-8-11-4-11-1-11 3-8-1-4-13-8-3-6 9 1 12 4 6 1 7-2 1-17z" fill="#FDFDFD"/>
<path transform="translate(1178,1582)" d="m0 0 3 1 1 2v8l-7 28-9 31-14 55-7 3-23 3-73 6-38 2h-42l-55-3-70-6-12-2-4-3-7-25-8-32-11-39-3-11v-9l5 2 12 44 10 37 7 28 1 1 38 4 46 4 47 2h56l42-2 66-6 18-2 4-17 12-46 11-39 2-8-11 1 3-2 8-1v-6z" fill="#101115"/>
<path transform="translate(1146,1550)" d="m0 0h9l7 10 5 10 5 9-1 5-3 2-16 4-38 7-13 1-10-5-6-10-6-9-4-8-2-5 1-3 35-3 33-4z" fill="#29338C"/>
<path transform="translate(824,1550)" d="m0 0 22 2 52 6 4 1 1 2v6h-2l-2 8h-2l-2 6-4 8-1 3-8 5-18-1-25-4-24-4-7-2-1-6 6-12h2l1-5 6-12z" fill="#29338C"/>
<path transform="translate(748,1478)" d="m0 0 8 1 8 2v5l5 1 1 3-2 7-2 21h8l6-5 5-1 3 6v3h-2v2h-2l3 5 2 1v2h2l-2-6h2v2l6 2 3 5h-16l-45-7-38-7-29-7-21-6-1-2 1-2 9-4 3-1h10l7-4 14-13 2 4 2 9 5 8 5 4 7-1 9-6 6-8 2-2 4 17 4 5 3 2h6l5-5 6-7 2-5-6 1v3l-5 2-5-1-2-5v-13z" fill="#FDFDFD"/>
<path transform="translate(705,792)" d="m0 0 3 1-2 12 1 13 5 16 7 14 11 14 16 14v2l3 1-5 2h-3v-2l-8-1v2l-4 1-1 3h-2l1-5-5 4-5-1-2-1v-2l-4-2-10-9-17-16-12-12-8-7-7-7-2-1-1-4 1-13 4-1 4 5 2 1v2h14l2-1h-13l-4-2 1-2 2 1h9l13-3 6-5 1-2h2v-3z" fill="#FDFDFD"/>
<path transform="translate(633,349)" d="m0 0h9l-3 5-8 10-8 13-5 12-4 15-5 27-4 14-6 10-9 10-16 15-6 13-10 27-2 6v4l9-5 9-4 6-2 4 1-1 3-10 4-11 6-6 5-3 6h-2l-2 5-4 8h-2l1-8 10-32 12-31 6-10 13-12 6-5 7-10 6-15 7-37 4-13 6-14 10-15-22 4-16 6-13 7-9 9-5 9-3 15-4 44-6 23-5 13-6 14-8 24h-2l1-26-2-14-5-16-5-15-2-21-3 1-8 14-8 17-4 13-3 16v21l4 17 11 21 4 8 3 9 1 8v10l-2 13h-2l-1-6 1-22h-2l-4-13-9-17-5-10-4-16v-22l3-15 5-16 9-20 14-23 4-5h3l-1 30 2 12 8 22 2 14h3l10-25 4-17 1-9 1-25 3-20 5-12 6-8 9-9 15-8 19-6z" fill="#1F2027"/>
<path transform="translate(1399,607)" d="m0 0 5 3 7 11 11 11 17 11 10 8 2 1v-10l-1-7v-8h2l2 4 5 33 1 8v11l-3-1-7-20-5-8-9-8-10-7-12-9-9-8-2-1 1 21 4 25 6 16 5 9 8 10 12 9 9 7 7 8 8 15 3 15v46l-1 8h-3l-2-5-3-15-6-12-7-9-5-5-8-7v-2h-2l-6-8-5-8-2-1-1 25v17l2 15 4 14 9 16 12 13 10 11 6 12 1 3v33l-4 33-2 7-2-2-3-21-5-12-6-10-9-10-7-10-5-9-4-4-1 4-2-1 2-10 2-5 3-1 8 22 9 14 4 5 5 5 5 6 3 6 2 1 1-10 2-4 1-13-3-15-5-12-9-10-11-11-9-14-5-13-4-17v-38l3-20 1-3 4 2 8 16 6 9 10 10 8 7 6 8v2l5 1-1-27-3-14-5-10-9-10-16-12-10-11-6-10-5-11-5-18-2-14-1-17v-17z" fill="#21222A"/>
<path transform="translate(638,1256)" d="m0 0h1v23l2 5 1-2 5 1 4 7-1 11v9l2 9 4 8 2 1-3-12-1-8v-9l1-7h1v13l4 13 1 2v8l-1 2 4 4 1 5 1-12 2-3v12l3 12 5 12 8 13-3 3-10 3-5-1-7-10-13-20-12-14-8-6-8-4-8-2v-1l9 1 4 1-2-9-4-6-7-6-10-6-26-12-12-8-6-5-2-3 1-5 2-3 3 1 9 12 11 7 23 10 11 6 7 6 1-7 2-2 1-9h2v3h4l-4-8v-2h2l8 16 3 5 2 1-4-13-1-5v-18zm-4 37m19 35 1 4 3-1-3-3zm1 8-1 5 2-3zm-2 6v3zm-2 3-2 3h3z" fill="#F9F9F9"/>
<path transform="translate(450,890)" d="m0 0h2l5 18 9 17 11 12 12 9 10 8 7 8 8 15 4 15 5 25 5 19v6l-5-5-10-20-4-5-14-11-10-7-10-9-9-10 1 21 2 16 3 14 7 16 9 14 1 3h2l5 5 9 7 16 8 9 7 9 11 6 12 3 8 8 26 6 18v5l-5-5-8-14-5-6-17-11-14-7-13-10-4-5v11l4 20 8 22 7 12 7 9 9 9 16 8 16 6 10 7 8 8 4 6v3l-3 1-6-9-7-7-12-6-21-9-11-8-9-9-9-14-7-16-6-20-3-16-2-17v-5l2-1 5 5 10 14 9 7 20 10 11 8 2 1-3-14-5-16-7-13-5-6-14-9-14-7-12-11-8-10-9-17-6-21-3-18-1-32 1-3 4 2 12 19 2 4 4 2 17 12 10 9 5 3-2-14-5-21-4-10-8-10-10-7-12-9-12-12-7-12-6-16-1-9z" fill="#22242C"/>
<path transform="translate(1338,348)" d="m0 0 10 1 23 5 15 5 12 6 12 11 6 8 4 9 2 7v6h-2l1 46h-1l-2-20-2-31-4-13-6-9-8-7-12-7-12-4-23-5 6 11 5 8 5 11 4 16 6 33 5 14 7 9 11 10 8 7 8 13 8 20 4 16 10 33-3 1-5-10-4-4-5-8-11-7-13-6-13-5-9-6-3-1 4 17 7 20 5 12 7 11 8 8 11 8 14 6 8 6 5 5 5 6 4 8 2 9h-2l-1 3-4-13-6-9-5-5-8-6-16-8-11-8-9-9-8-13-7-15-6-18-3-11-1-7v-11l4 2 6 5v2l4 2 11 7 20 7 13 9 2 1-5-17-9-25-5-9-6-7-9-7-5-4-8-11-5-11-5-21-6-29-8-18-7-11-9-11z" fill="#404246"/>
<path transform="translate(1165,1467)" d="m0 0 6 1 8 9 3 8v18l-4 11-7 9-5 1-8-4h-3l-7 9-7-1-9-7-2-7-3-16-4-9h-3l-3 2 1-7 4-6h4l4 6 5-5 8-7 5 2 7 5 8-11z" fill="#04060D"/>
<path transform="translate(1248,1345)" d="m0 0 4 4v3h2l1 4-4-1-2 11-6 21-9 25-5 15 43-9 40-10 5-1 1-7 2-1v5l6 1 7 1 16-4 1 2-23 7-44 11-33 8-44 9-30 5-15 3-30 4-19 2-3 3-8 21-9 22-5 13-6 14-5 13-5 12h13v1l-9 1v2l-4 1 1 13h-2l-6-10-1-6 13-30 30-75 5-2 36-4 55-9 16-4 5-5 8-20 10-30 6-25z" fill="#0D0F14"/>
<path transform="translate(731,1347)" d="m0 0h1l7 28 10 30 9 21 3 3 23 5 57 9 31 4 6 12 11 28 17 41 9 21 2 4-1 5-4 6-1-2-1-10-11 1-4-2h14l-10-24-28-70-1-4-20-2-46-7-50-9-47-10-43-11-25-7-2-2h14l5-1v-7l-3-8 1-5 8-4h6l-1 5-8 2 1 6 3 13 7 3 66 15 16 3-5-11-6-16-7-21-6-21v-2h-3l1-4z" fill="#0D0F16"/>
<path transform="translate(601,1388)" d="m0 0 4 2 2 2 1 4 3 2h-4l2 30 4 42 3 24 1 3 16 6 27 8 28 7 44 9 41 7 62 9 51 6 6 1-4 2-17-1v1h-11l-4-1v-2l-2 1h-16l-17-1-5-1-45-7-44-8-39-8-39-10-30-10-6-4-4-16-5-32-3-41-1-19z" fill="#121319"/>
<path transform="translate(1376,1385)" d="m0 0h2l1 3v18l-3 38-3 26-5 28-4 5-11 5-30 9-33 8-48 10-66 11-14 2-1 2-1-1h-19l-8 1-33 3-9 1-5-2 1-2 58-7 69-10 40-7 49-11 30-8 27-9 2-1 3-16 5-38 3-45-4-1h4v-6z" fill="#0E0F13"/>
<path transform="translate(1327,1210)" d="m0 0h2l3 19 3 10 1 7 1 16 3-1 1 16-2 14-2 3-2 7h-3l-2-9-4-24 1-15-1-1-1 3-1-14-4 2-2 5v21l4 23v18l-1 4-1 7-4 2-2-1-2-7-1-2-1-7-1-2-2 2-1-8-2-6-1-7v-10l2-21 4-12 8-16 8-14z" fill="#FBFBFB"/>
<path transform="translate(964,1645)" d="m0 0 4 2 2 5h4l4-6 5-1 2 4 6-1 4-3 5 1 2 2-1 10v10l2 9 4 2 4-4 2-8v-10l-1-7 3-4 5 1 2 2v26l1 3 5-1 2-1h8l6 4 2 2 5-1 1-10-2-3-8 2-5-1-5-6v-8l3-5 6-5 16 1-2 5-4 2h-6l-5-1-1 1 1 7 1 1 7-1 2-2 4 1 5 6v13l-4 6-10 5-5-2-6-5h-8l-7 7-4-2-2-7-5 5-3 4h-5l-5-7-2-6v-22l-8 2h-11l-2 9v13l1 9-3 2-4-1-3-5v-22l-1-6-6 2 1-5 4-5z" fill="#03050A"/>
<path transform="translate(1089,1010)" d="m0 0h2l-3 9-12 32-12 30-3 4-11-11-8-7-14-14 1-3 32-21 21-14z" fill="#C5C5C5"/>
<path transform="translate(706,1321)" d="m0 0 11 3 5 5 2 3v13l-4 7-4 5-7 5h-2l-1 2-9 5h-7l-5-3-2-4-4-4-4-9-2-7v-11l5-4 6-2 7-1 1-1 13-1z" fill="#29338C"/>
<path transform="translate(1274,1322)" d="m0 0 12 1 8 2 7 2 5 5v10l-4 10-4 8-6 9-5 1-16-7-10-8-1-4h-2l-4-11-2-5 5-8 4-2 5-2z" fill="#29338C"/>
<path transform="translate(475,548)" d="m0 0 3 1 2 23 5 13 12 20 8 13v2h2l3-30 1-19h1v28h2l1-13h1v10l-3 17-3 15-3 21-2 3h-3l-1-2-1-23-4-12-6-11-13-19-2-4v9l3 6-9-2v-6l-3 4-3 10-2 11v20l3 16 7 16 9 12 10 11 4 7v3l-2 2-1 4-4-9-6-9-9-10-9-15-5-13-3-17v-16l4-24 6-21 7-18zm-3 26 1 2zm-3 8 1 2z" fill="#2F3035"/>
<path transform="translate(1479,1072)" d="m0 0 2 1-3 3-5 1v2h7l1 1 1 11 4 5-3 6-8 10-11 9-21 11-8 6-5 1 1-10 6-18 6-12 8-10 9-7z" fill="#FAFAFA"/>
<path transform="translate(1420,406)" d="m0 0h2l1 2 2 37 3 17 10 27 4 4 2-13 8-24 2-10v-16l-1-18 4 2 10 15 10 18 8 19 5 19 1 6v27l-5 16-10 19-6 12-2 8v16l2 15v6l-3 2-3-17v-20l2-10 5-12 9-17 5-14 1-6v-27l-5-22-3-9h-2l-6-14-8-12-2 18-2 8-6 17h-2l-2 11-1 4v20l1 14-3-1-3-6-4-15-13-32-4-14-1-11z" fill="#26272D"/>
<path transform="translate(637,1349)" d="m0 0 5 1 8 9 7 11 3 7v2l-8 3 1 9 2 5-1 4-8 1-15-4-17-4-6-4-1-5 4-5 2-6 7-10h2v-2l6-4 4-4z" fill="#29338C"/>
<path transform="translate(1338,1351)" d="m0 0 6 1 8 4v2h3l7 8 5 6 3 6 1 8 1 3-5 2-11 4-22 6h-7l-2-1 1-7 2-6v-5l-7-3-1-4 5-8h2l1-5 6-9z" fill="#29338C"/>
<path transform="translate(532,1222)" d="m0 0 4 2 7 8 5 5 8 6 12 5 18 6 8 5-6-16-5-11v-3l3-1 8 16 7 17 6 11 5 10-1 2-4-2-14-16-5-4-8-4-23-6-3-1 2 3-3 8-3 5 3 12 5 9 9 13 9 8 14 7 11 3 9 1v2l10 2 9 5 10 9 3 5-6-1v-2l-4-2-6-5-8-4-24-6-12-5-13-9-9-10-9-14-8-17-8-22-3-14-1-8z" fill="#28292E"/>
<path transform="translate(821,1548)" d="m0 0 17 1h14v-1h7l-1 2-2-1v2h10v-1h12l12 1 6-1 3 2h11l2 7v6l-10 17-8 13-1 5-3-1-5 2-14 1-2 2-32-5-29-5h-6l-2-1-2 3-1-4v-7l8-14 10-18 2-4zm3 2-3 2-4 9-2 4v3h-2l-6 12 1 6 13 3 22 4 21 3 18 1 8-5 4-9 3-6v-2h2l2-8h2v-6l-1-2-6-1-50-6z" fill="#1A1F4C"/>
<path transform="translate(804,1593)" d="m0 0 17 2 40 7 28 4 1 2-16-1-19-3h-9l1 4 4 5v7l-6 10-11 9-6-1-9-10h-3l1 12-2-3-11-40z" fill="#C5C5C5"/>
<path transform="translate(633,349)" d="m0 0h9l-3 5-8 10-8 13-5 12-4 15-5 27-4 14-6 10-9 10-16 15-6 13-10 27-2 6v4l9-5 9-4 6-2 4 1-1 3-10 4-11 6-6 5-3 6h-2l-2 5-4 8h-2l1-8 10-32 12-31 6-10 13-12 6-5 7-10 6-15 7-37 4-13 6-14 10-15-22 4-16 6-13 7-9 9-5 9-3 15-1 9-1-2h-3l2-19 7-14 12-12 15-8 19-6z" fill="#1E2027"/>
<path transform="translate(645,1198)" d="m0 0 4 2 9 11 10 17 9 21 3 12 1 7v23l-1 6h-1l-1-11-4 19-1-4 2-13v-13l-3-20-6-17-3-5 1 6-2 6 1 2v10l-5 30-1 5h-2v16l2 12 1 8-3-1-5-11-1-6v-9l3-23 3-12v-30l-6-5-3 9-1-3 3-11v-5l-2 3-3 15-3 5-1-2 4-13zm9 17m1 1m1 1 1 2zm2 5m1 1 1 2zm1 2 1 5 1-3zm-2 15 1 2z" fill="#66676B"/>
<path transform="translate(606,1085)" d="m0 0 3 1 9 16 10 25 4 17 1 21-2 18-5 12-6 12-4 13v13l5 17 5 9 2-4 4-1 2 1 4-10 3-3 3-11 2-14 3 1v8l-5 17-4 12-1 1-1 9v16l4 15v3l-4-2-16-32-5-11-5-16v-19l4-12 8-19 3-11 1-6v-22l-3-16-7-20-7-14v-2l-2 1-3 15-7 16-3 4-2-4 5-9 5-27 1-7zm23 178-2 2 2 3 3-1v-4z" fill="#272831"/>
<path transform="translate(1532,838)" d="m0 0h1l1 9v17l-2 20-3 16-4 12-8 16-12 13-8 7-10 7-8 7-6 11-5 14v7l-4 18 3-2 1-12 1-2h2l1-3 2 1v10l7-6 10-7 8-7 15-21 3 1-1 29-2 4h-1v-22l-3 3-2 5-3 3h-2l-2 4-5 5-11 8-7 3-10 9-6 9-4 9-4 7h-2l1-6 6-27 4-20 7-19 6-10 7-8 8-4 12-9 8-8 9-15 6-18 2-8 1-11h2v-28z" fill="#22242A"/>
<path transform="translate(1141,1548)" d="m0 0h19l3 1 6 12 10 18 1 3-3 3v6l-1 1-11 2-5 2-14 1-23 4-13 1-15-1-3-1-2-6h-5l-14-23v-15l4-1-1-3h10v-2l3 1 4 2 12-1 31-3zm5 2-21 3-25 3-26 2-1 4 6 12 10 15 3 5 10 4 17-2 37-7 12-3 4-3-1-6-8-14-6-11-2-2z" fill="#191F4B"/>
<path transform="translate(1338,348)" d="m0 0 10 1 23 5 15 5 12 6 12 11 6 8 4 9 2 7v6h-2l1 46h-1l-2-20-2-31-4-13-6-9-8-7-12-7-12-4-23-5 6 11 5 8 5 11 4 16 6 33 5 14 7 9 3 3 2 6 2 3-4-2-6-5-8-11-5-11-5-21-6-29-8-18-7-11-9-11z" fill="#5A5B5F"/>
<path transform="translate(608,1212)" d="m0 0h3l1 4h-2l1 2 2-1v21l7 21 7 14-1 2-3 8v5l-10-5-1 4-4-1-4-6 1-2 4 5 2-1-6-15-6-14-7-16-2-7-1-2 1-3 7-1 4-6z" fill="#FCFCFC"/>
<path transform="translate(1250,1438)" d="m0 0 5 1-1 5-5 2-5 1 2 9 1 5h8l2 1-1 4-6 2 1 12 3 17v20h-4l-9-45-7-3 2-4 3-2-2-10-4-4-2-1h-6v12l4 23 4 17 1 6-2 2h-5l-3-5-5-29-2-10v-8l4-9 6-5 6-1 6 4 4 1v-5l2-2z" fill="#04060E"/>
<path transform="translate(801,1479)" d="m0 0 8 1 6 2 10 1-2 5-3 4-4 16v6l4 2-1 4-8 5-3-1-1-8h-3l-4 2-2 4-7-1-4-8v-17l4-8 8-8z" fill="#03050B"/>
<path transform="translate(534,715)" d="m0 0 2 1-4 5v4l-6 8-5 12-2 16v20l4-4 7-9 8-8 8-7 7-9 6-10 4-10 3 1 3 17 1 11v28l-1 7h-1l-1-13h-2l-2-32-1-3-7 10-11 12-12 11-8 12-3 9-2 16-5 1-1-1v-57l4-14 7-14 5-6zm-4 6m-1 1m-1 1m-1 1m-1 1v3l2-2z" fill="#313238"/>
<path transform="translate(1267,1315)" d="m0 0h13l21 5 4 1 1-2 4-1 2 10v9l-2 10-2 6h-2l-2 6-7 12v3l12 5v1l-8 1-4-2-3-5-20-2-10-7-9-8-1-5h-2l-3-6-1-1v-13l5-10 8-5zm7 7-12 2-3 3h-2l-5 8 2 5 4 11h2l1 4 12 9 15 6 5-2 7-11 5-12 1-3v-10l-5-5-11-3z" fill="#1A204C"/>
<path transform="translate(919,1627)" d="m0 0 5 2 22 3 8 3-3 6-2 2-9-2-14-3-9 1-4 4-2 6v15l5 10 6 5v2l6 2h8l6-3 5-5h2l-1 4-7 8-7 4h-8l-9-4-7-5-6-9-2-7v-10l4-10 7-8v-2h-10l-9 2-5 1 2-7 4-3 6-1z" fill="#030409"/>
<path transform="translate(579,967)" d="m0 0h2l6 14 6 19 4 22 1 9v9l-2 17-5 14-8 14-6 9-4 11-1 6v10l5 20 4 11 3-1 9-20 2-1 1 5-6 15v25l1 10h-2l-6-14-12-36-3-14v-13l6-16 7-12 8-16 2-5 1-7v-31l-2-15-4-15-2-9-4 1-4 9h-3l3-15 2-9z" fill="#262832"/>
<path transform="translate(715,1462)" d="m0 0h7l6 8 2 6v10l-3 8-9 8-5 3h-6l-7-8-2-5v-13l3-6 7-7z" fill="#03040A"/>
<path transform="translate(450,890)" d="m0 0h2l5 18 9 17 11 12 12 9 10 8 7 8 8 15 4 15 5 25 5 19v6l-5-5-10-20-4-5-14-11-10-7-10-9-9-10-1 10h-1l-2-15v-9l4 2 12 19 2 4 4 2 17 12 10 9 5 3-2-14-5-21-4-10-8-10-10-7-12-9-12-12-7-12-6-16-1-9z" fill="#1B1C27"/>
<path transform="translate(452,686)" d="m0 0 3 3 7 22 7 11 11 12 7 9 4 6 1 1 1-14v-15l-2-22 4-1 4 13v64l-1 8-3 1-2-1-3-17-5-16-6-9-13-14-9-14-4-7-2 6-3 14-5 1 1-11 7-29z" fill="#36373A"/>
<path transform="translate(1287,1453)" d="m0 0h4l-1 4v14l2 10 6 2-3 7-3 4h-3l-3-6-2-1-2 5-3 6-7-1-7-8-3-9 1-12 6-9 4-3 12-2z" fill="#04050D"/>
<path transform="translate(1514 1e3)" d="m0 0h1v11l-5 20-7 16-9 13-5 6-7 6-16 8-12 7-8 9-5 9-6 14-4 14-1 6 8-4 9-6 18-10 10-8 9-12 2-4 5 1-4 24h-3l1-12h-2l-12 12-13 8-14 7-10 8-6 7-4 7-5 8h-2l1-6 6-16 5-19 8-20 6-10 9-10 11-7 11-6 11-8 9-10 6-10 5-11 4-13 3-15z" fill="#0E0F16"/>
<path transform="translate(635,1340)" d="m0 0 1 2 7 1 9 12 11 18 5 5 5 1v3l-4 1-2 2v-2l-3-1 3-1-7 1-6 3 1 6 2 6v7l-6 2h-16l-23-7-5-3-2-5-4-4 4-11 8-12 11-12 8-7zm2 9-8 6-5 5-2 1v2h-2l-8 11-2 6-3 5 2 5 5 3 22 5 10 3 8-1 1-4-3-8v-6l8-3-2-8-7-10-7-9-3-3z" fill="#191E4A"/>
<path transform="translate(676,1436)" d="m0 0 5 2 4 3 7 1 4 1-2 4-5 3-9-3-5-3h-6l3 6 11 8 8 7 2 4v9l-3 5-11 9-5 4-7-1-10-4-8-1v-3l4-3 9 1 11 5 4-2 1-5-3-5-8-5-7-3v-4l4-4 4 1 4 4 8 6 5 8 2-1v-7l-4-6-9-6-5-2-7-8 1-6 7-6z" fill="#04050D"/>
<path transform="translate(1468,1136)" d="m0 0h3l-1 8-4 10-7 16-4 2-2 4-9 10-11 3-2-4 1-4h2v-2l9-4 2-2 1-6-11 7-6 4h-2l-2 4-3 1-7 8-4 5-6 5-3-1 5-12 10-9 15-11 14-9 11-9 9-11z" fill="#C5C5C5"/>
<path transform="translate(1137,1452)" d="m0 0h7l-1 4-8 4-9 3-4 3-3 13h-3v7l-2 3h-3v2l-6 3-3 3-2 5h-2l-1 5-4 7-3 6-6 3 4-16 2-4h2l3-9 5-13 5-12 5-13 3-2h9z" fill="#FDFDFD"/>
<path transform="translate(1410,861)" d="m0 0h1v9l-2 15-1 15v17l4 21 7 13 14 18 6 10 2 6 1 17-2 15-3 12-5 5-4-1-7-16 1-2 4 6 1-10 3-1 5 3 1-10v-12l-2-9-5-10-14-18-6-12-5-18-1-8v-22l3-22 2-9zm17 164 2 7 3-1-3-5z" fill="#232530"/>
<path transform="translate(565,775)" d="m0 0h2l1 4v15l-4 14-7 14-7 9-9 10-8 8-5 9-4 15v16l2 17 4-2 7-11 11-12 6-9h3l-2 6-11 14-7 9-5 12-4 24-2 1-2-8-3-23-1-12v-21l2-12 4-9 5-8 4-5 8-7 9-11 8-16 3-11z" fill="#15171F"/>
<path transform="translate(804,738)" d="m0 0h11l10 5 8 7-1 2-4-3 1 6 2 9-1 4-3 4-4 1h-10l-2-1v-2l12-1 2-2-3 1h-11l-6-5-5-3-2-6v-7h-3l2-4 5-4z" fill="#C7C7C7"/>
<path transform="translate(613,497)" d="m0 0 2 1-1 10-4 20-7 20-9 17-7 9-10 10-16 9-11 6-10 9-4 7-1-4-4 3 2-5 7-10 10-7 19-9 10-8 8-9 8-15 6-15 5-16 1-8-7 3-14 7h-3v-4l12-6 10-8z" fill="#3E3F42"/>
<path transform="translate(1521,897)" d="m0 0 3 2-1 9-4 9-7 12-11 11-15 10-2-1-3 2v3l-7 6h-3-2l1-9 3-3 2-5h2l6-13 2 1 11-3 9-7 8-13 6-10zm-43 55 1 2 1-2z" fill="#F8F8F8"/>
<path transform="translate(1384,1058)" d="m0 0 2 3 4 11 7 12 8 14 3 8v19l-3 14-5 14-2 3-4-2-4-12 1-3 4 10v2h4l-3-6 1-6 4-8v-28l1-5-5-10 1 6 1 2v6l-4-5-4-4-5 3-6 8v14l-2-2-3-13-1-10v-7l4 4 5-8 2-6h3v-2l-4-10z" fill="#C5C5C5"/>
<path transform="translate(1399,967)" d="m0 0h3l5 18 2 10 5 9 7 9 8 20h3l4-4-1 8-5 22-2 4h-1l-1-22-2-10-7-15-3-3-6-10-5-10-3-10v-3l-3 2-6 18-4 19-1 23h-2v16h-1l-2-11v-21l5-25 8-24 4-9z" fill="#17191D"/>
<path transform="translate(1006,937)" d="m0 0h2l-2 4-19 14-16 12-18 13-12 10-3 1 1-6 12-26 7-14 3-2 1 1v11l2 2 7-1 19-10 9-4 6-4z" fill="#F7F7F7"/>
<path transform="translate(1332,1198)" d="m0 0h2l1 6v16l1 12 7 17 5 14v4h3l2-6 4-4-2 6-4 8h-4l-2-8-4-1-6-21-4-12-2-10v-9l-5 5-8 14-8 18-4 16-2 17-1 3 4 18 2 6v8l-2-3v-2h-2l-4-14-1-8v-16l3-18 7-18 10-19 12-17z" fill="#222329"/>
<path transform="translate(1041,1645)" d="m0 0 16 1-2 5-4 2h-6l-5-1-1 1 1 7 1 1 7-1 2-2 4 1 5 6v13l-4 6-10 5-5-2-6-5-7-2 1-3 2-1h8l6 4 2 2 5-1 1-10-2-3-8 2-5-1-5-6v-8l3-5z" fill="#020407"/>
<path transform="translate(1140,1480)" d="m0 0 5 1 5 8 3 9v17l-3 6-5 1-6-4-2-7-3-16-1-8 5-5z" fill="#C5C5C5"/>
<path transform="translate(1079,1627)" d="m0 0 2 1-2 6-2 4-1 6 9 1 2 2-3 3h-7v16l2 13 5-2 5-3-1 5-9 10h-4l-4-5-2-6-1-19-1-8h-5l-2-4 8-4 6-12z" fill="#030409"/>
<path transform="translate(1503,549)" d="m0 0 3 3 5 11v5h-2l-2-3h-2l-3 15-4 10-9 14-8 16-5 33-3-1-5-35v-9l1 2h2l2 10 5-5 9-17 8-13 4-12 2-12 1-11z" fill="#13151D"/>
<path transform="translate(1164,1475)" d="m0 0 4 2 5 7 3 11v10l-2 8-2 4-7-1-5-4-1-9v-9l-2-7 1-7 4-4z" fill="#C5C5C5"/>
<path transform="translate(592,457)" d="m0 0 4 1-6 7-16 15-6 13-10 27-2 6v4l9-5 9-4 6-2 4 1-1 3-10 4-11 6-6 5-3 6h-2l-2 5-4 8h-2l1-8 10-32 12-31 6-10 13-12 6-5z" fill="#292A31"/>
<path transform="translate(1442,1235)" d="m0 0h2l1 6-4 14-6 16-8 16-7 11-15 15-10 6-18 6-17 4-9 5-6 6-1 3h2v3h-3v-2h-5l-3 2 2-4 9-10 14-8 24-6 13-5 11-8 7-7 7-11 7-12 9-24z" fill="#15171D"/>
<path transform="translate(1369,373)" d="m0 0 6 1 8 5 8 10 5 10 4 13 7 33 6 17-1 3-4-2-6-13-4-14-7-31-5-12-7-8-9-8z" fill="#444548"/>
<path transform="translate(1384,1042)" d="m0 0h2l1 16 6 13 8 14 6 10 4 12v15l-3 16-13 38-3 8h-3l1-8v-22l-2-9-3-9 5 1 4 15 2 3h2l4-9 4-14 1-7v-19l-5-12-9-15-6-11-3-10z" fill="#060915"/>
<path transform="translate(469,597)" d="m0 0 6 2 6 27 10 19 8 16 4 12v13l-3 2-2-1-4-20-7-16-14-27-4-14z" fill="#323337"/>
<path transform="translate(1198,1474)" d="m0 0 10 3 4 3-1 4-9 12-2 5 4 5 5-1 5-7h2l-1 6-6 9-4 2-9-6-4-5-3-10 1-8 3-6z" fill="#050710"/>
<path transform="translate(1337,1443)" d="m0 0 9 3 4 2-1 5-8 11-3 4 2 5 3 2 5-1 4-8h2l-1 7-4 8-4 3-5-1-8-7-3-6-1-5v-9l6-11z" fill="#04050C"/>
<path transform="translate(846,1463)" d="m0 0h9l6 5v5l-5 1-5-6-5-1-3 5-6 32-3 25h-6l-3-3 1-8 7-37 3-9 6-7z" fill="#03040A"/>
<path transform="translate(1349,351)" d="m0 0h8l18 4 16 6 11 7 11 11 7 14 2 7v6h-2l1 46h-1l-2-20-2-31-4-13-6-9-8-7-12-7-12-4-22-5-4-4z" fill="#46474A"/>
<path transform="translate(494,467)" d="m0 0 3 2-2 12-2 11v21l4 17 11 21 4 8 3 9 1 8v10l-2 13h-2l-1-6 1-22h-2l-4-13-9-17-5-10-4-16v-22l3-15z" fill="#23242C"/>
<path transform="translate(1414,846)" d="m0 0h2l8 22 9 14 4 5 5 5 5 6 4 9 2 1 2-14 3-2v16l-4 28-2 1-2-8-2-15-5-12-6-10-9-10-7-10-5-9-4-4-1 4-2-1 2-10 2-5z" fill="#181A21"/>
<path transform="translate(457,736)" d="m0 0 4 2 3 12 7 13 20 28 7 14 1 4v8l-4 2-3-5-4-15-4-8-8-11-13-18-7-15-1-9z" fill="#404144"/>
<path transform="translate(574,1095)" d="m0 0 1 4-3 12v10l5 20 4 11 3-1 9-20 2-1 1 5-6 15v25l1 10h-2l-6-14-12-36-3-14v-13l4-12z" fill="#1C1E28"/>
<path transform="translate(557,1260)" d="m0 0 3 1 9 12 11 7 7 3 3 3 14 6 14 9 6 5 4 5v4l-5-2-10-9-13-8-26-12-12-8-6-5-2-3 1-5z" fill="#212225"/>
<path transform="translate(564,646)" d="m0 0 3 1-1 6-7 11-9 10-16 16-7 10-4 8-3 9-2 1-4-4 3-10 10-15 3-4h2l2-4 8-7 9-9 9-14z" fill="#3B3C3E"/>
<path transform="translate(657,1242)" d="m0 0 3 3 2 8v12l-5 27h-2v16l2 12 1 8-3-1-5-11-1-6v-9l3-23 3-12 1-23z" fill="#63699F"/>
<path transform="translate(749,1468)" d="m0 0 6 1 9 3-2 4-4 2-7-3-5 1-2 3-1 5v10l3 8 5 1 9-6-1 5-7 7-4 3-6-1-5-6-2-5v-13l3-10z" fill="#04060F"/>
<path transform="translate(1389 1e3)" d="m0 0 1 4-2 19v15l2 10 3 13 6 12 7 12 4 8 3 12v11l-3 18-8 22-7 21-3 4-5-1 1-19v-11l-1-9 2-1 2 9v22l-2 8h3l1-6 13-37 3-12 1-7v-15l-4-12-8-14-7-11-5-13v-38z" fill="#C5C5C5"/>
<path transform="translate(1506,600)" d="m0 0 3 1v11l-5 16-17 34-3 8-2 12-2 4-4-1v-9l4-12 13-27 7-14z" fill="#070917"/>
<path transform="translate(712,1467)" d="m0 0 4 1 4 5 3 7v10l-6 9h-5l-5-6-2-7v-10l4-7z" fill="#FEFEFE"/>
<path transform="translate(1321,1243)" d="m0 0 3 1 1 25 5 28v17l-3 9-3 5h-2l1-7 1-6v-14l-3-20-3-17v-14l2-6z" fill="#060813"/>
<path transform="translate(749,1466)" d="m0 0h6l11 4 1 5 4-1-2 4-2 5 4-3 3 1-1 7-3 14v14l5-1 3-2-1 4-3 2h-6l-3-3 3-24 1-4-5-2v-5l-16-2-3 4v13l1 5 9-1-4 4-5-1-3-5-1-4v-10l2-7 4-3 5 1 6 2 5-5-9-2-6-1-10 8-3 6-2-2 3-6h2l1-3z" fill="#C5C5C5"/>
<path transform="translate(579,1012)" d="m0 0 3 1 1 9-3 11-14 35-3 12-1 14-1 2-3-1-1-5v-12l4-13 10-24 4-11 3-16z" fill="#070A19"/>
<path transform="translate(646,1217)" d="m0 0 3 1v8l-5 17-4 12-1 1-1 9v16l4 15v3l-4-2-20-40 1-3 3 1 6 13v2l4 1 3-15 3-11 3-3 3-11z" fill="#03050A"/>
<path transform="translate(555,767)" d="m0 0 3 1-1 8-6 12-9 12-10 14-6 10-4 8-3 11h-3v-7l4-12 9-15 2-2 2-5 7-9 6-10 7-14z" fill="#303135"/>
<path transform="translate(1362,1206)" d="m0 0h2l3 9 1 5v16l-4 15-9 19-10 19-5 9-2 1 1-7 2-5 1-7v-17l4-1 2 9h2l6-12 7-20 1-6v-13l-3-9z" fill="#0D0F15"/>
<path transform="translate(1467,465)" d="m0 0h2l2 4 1 6-1 16-5 21-5 19-3 25h-3l-2-6 1-14 5-19 6-22 1-6z" fill="#04060F"/>
<path transform="translate(1317,1448)" d="m0 0 4 2v7l-8 3-1 2v12l3 11-1 5-5 1-3-5-4-20-2-4-4-1 1-5 3-5 4 1 3 5 4-1 2-5z" fill="#04050C"/>
<path transform="translate(590,532)" d="m0 0h3l-1 7-8 9-15 10-11 8-10 9-4 5-4 4-4 6h-2l1-5 6-11 9-9 8-6 4-4 15-10 8-7 3-5z" fill="#2D2E32"/>
<path transform="translate(510,466)" d="m0 0h2l1 19 4 20 8 27 1 5v17l-2 4-2-1-2-21-7-26-4-15-1-7v-18z" fill="#04060F"/>
<path transform="translate(1366,1132)" d="m0 0h3l1 5 1 11 6 23 5 16v23l-2 5-4-1 1-5v-13l-3-16-8-26-2-10v-8z" fill="#060815"/>
<path transform="translate(606,374)" d="m0 0h3l-2 4-10 10-5 7-5 15-6 27-6 18-5 8-2 1 1-6 5-14 7-31 5-16 4-8 7-9z" fill="#070917"/>
<path transform="translate(1398,1013)" d="m0 0h3l1 2 1 14h2l3 7 3 9 6 13 5 19v14l-1 4h-2l-1-3-1-14-5-16-12-28-3-11v-9z" fill="#1D1F2D"/>
<path transform="translate(574,991)" d="m0 0 1 4-4 9-11 18-4 8-2 9-1 21-2 4-3-7-4-18v-10h3l1 2h2l9-17 9-13 4-9z" fill="#151723"/>
<path transform="translate(450,890)" d="m0 0h2l5 18 9 17 11 12 12 9 10 8 7 8 8 16h-3l-1 2-5-13-8-10-10-7-12-9-12-12-7-12-6-16-1-9z" fill="#23242B"/>
<path transform="translate(565,775)" d="m0 0h2l1 4v15l-4 14-7 14-7 9-9 10-8 8-5 9-4 15h-3v-8l5-12 5-8 4-5 8-7 9-11 8-16 3-11z" fill="#1E2024"/>
<path transform="translate(1386,1075)" d="m0 0 7 5 4 7 1 7 1 2v6l-4-5-4-4-5 3-6 8v14l-2-2-3-13-1-10v-7l4 4 5-8 2-6z" fill="#F9F9F9"/>
<path transform="translate(800,1484)" d="m0 0 6 2 5 3-1 9-3 10-5 5-5 1-2-2-1-4v-16l4-6z" fill="#FEFEFE"/>
<path transform="translate(1424,768)" d="m0 0 4 4 5 12 7 11 13 17 9 16 2 8v7h-4l-2-5-3-12-8-14-9-11-8-11-5-10-2-10z" fill="#060813"/>
<path transform="translate(1521,737)" d="m0 0h2l1 4-4 13-6 11-13 18-10 15-4 11-3 7h-3l1-10 7-14 12-17 7-10 6-10 4-10 2-6z" fill="#050712"/>
<path transform="translate(1385,531)" d="m0 0 7 3v2h2l5 6 5 5 19 13 9 7 8 8 7 14-2 2-7-10-6-8-11-9-12-8-5-2-11-9-7-8z" fill="#17181E"/>
<path transform="translate(460,873)" d="m0 0 4 1 8 16v2h2l2 5 14 15 9 10 9 15 2 5v5l-5-5-6-12-9-11-22-24-7-14z" fill="#12131A"/>
<path transform="translate(479,1006)" d="m0 0 4 3 3 8 7 9 11 9 14 12 10 10 7 11 1 5-3 1-6-10-7-8-8-8-11-9-10-9-8-9-5-11z" fill="#070917"/>
<path transform="translate(537,1235)" d="m0 0 5 2 10 8 14 7 6 2-4 1-11-3-3-1 2 3-3 8-3 5 1 8-3-4-6-16-5-17z" fill="#F5F5F5"/>
<path transform="translate(611,1130)" d="m0 0 3 1 1 2v12l-5 21-5 15-2 10-1 23-2 1-3-9 1-16 7-25 5-21z" fill="#060814"/>
<path transform="translate(773,1474)" d="m0 0h7l2 1v5l-3 8-2 19 3 3-1 3-6 4-4-1v-14l3-14 1-7-5 2-2 1 1-4 4-5z" fill="#04050D"/>
<path transform="translate(559,396)" d="m0 0h1l-1 13-1 3h3v15l-2 22-6 23-5 13-3 6-4 3-4-2h3l10-25 4-17 1-9 1-25z" fill="#343640"/>
<path transform="translate(1415,647)" d="m0 0 3 1 7 14 13 13 6 5 9 11 7 11 4 10-2 5-3-2-3-10-8-12-10-11-7-8-10-10-6-11-1-5z" fill="#060814"/>
<path transform="translate(563,724)" d="m0 0 3 1 3 17 1 11v28l-1 7h-1l-1-13h-2l-2-32-1-3-4 4-2-1-1-2 5-10z" fill="#484A57"/>
<path transform="translate(559,891)" d="m0 0 3 1v8l-4 12-11 20-9 17-2 6-2 15h-4v-12l3-9 13-25 6-10z" fill="#050813"/>
<path transform="translate(459,619)" d="m0 0h1l2 21 3 12 8 16 8 10 9 10 4 7v3l-2 2-1 4-4-9-6-9-9-10-9-15-5-13-1-8h2l1 4-1-9z" fill="#58595C"/>
<path transform="translate(1421,1263)" d="m0 0 2 2-6 9-8 7-21 11-16 8-9 6-9 8h-2l1-4 8-8 13-9 29-14 8-6 5-5z" fill="#03040A"/>
<path transform="translate(1438,1100)" d="m0 0 1 2-7 17-10 32-5 14 3-2 5-10 6-8 10-9 14-8 10-5 9-7 10-10 2 3-1 8h-1l-2-6-6 7-14 10-14 7-9 6-5 4-7 11-6 12-6 1 1-10 4-10 8-28 8-18z" fill="#C5C5C5"/>
<path transform="translate(1318,1221)" d="m0 0 1 3-8 16-4 11-3 12-2 17-1 3 4 18 2 6v8l-2-3v-2h-2l-4-14-1-8v-16l3-18 7-18 6-12z" fill="#23252D"/>
<path transform="translate(1273,1462)" d="m0 0h6l3 3 1 7v12l-4 5-6-2-5-10v-12z" fill="#FEFEFE"/>
<path transform="translate(1367,1129)" d="m0 0 4 3 2 18 9 31 2 6v21l-2 6-2 3-4-1-1-4v-14l-2-13-3-12-6-19-1-6v-15zm-1 3-2 4v8l4 17 7 22 2 13v13l-1 5 4 1 2-5v-23l-5-16-6-23-1-11-1-5z" fill="#C5C5C5"/>
<path transform="translate(510,1138)" d="m0 0 4 1 9 11 9 8 16 10 14 11 7 7 5 8v3l-4-2-6-8-10-9-24-16-9-7-7-8-4-8z" fill="#060813"/>
<path transform="translate(1500,1007)" d="m0 0 1 3-3 8-6 8-7 7-5 6-6 5-5 3-12 11-6 7-5 8h-2l2-7 8-11 14-14 3-4 5-2 13-12 7-11z" fill="#0E1016"/>
<path transform="translate(1338,348)" d="m0 0 10 1 4 2-3 1 3 4 1 4 8 13 6 13 3 11v5l-2-4v-4l-2 1-2 4-4-13-8-16-7-11-8-9z" fill="#58585A"/>
<path transform="translate(651,1210)" d="m0 0 4 4 2 4 3 3 1 7 3 8-1 6-1 3 1 2v10l-2-4-2-8-2-2-1 6h-1v-13l-6-5-3 9-1-3 3-11 2-15zm7 12m0 18 1 2z" fill="#F6F6F6"/>
<path transform="translate(1418,891)" d="m0 0 3 1 4 15 8 16 9 15 5 12 2 8v12l-3 1-2-13-4-13-9-17-8-14-5-13z" fill="#04060F"/>
<path transform="translate(1396,1230)" d="m0 0 1 3-1 6 6-1 2 2 2 7 3 3-13 5-10 6h-3l2-9 8-17z" fill="#F5F5F5"/>
<path transform="translate(1518,872)" d="m0 0 2 3-3 10-6 10-11 12-12 13-4 7-4 4-6 10-4 6h-1l1-7 6-11 10-13 11-12 9-10 8-13z" fill="#06070C"/>
<path transform="translate(1472,958)" d="m0 0 3 1-2 5-6 14-4 14-8 38-3 10 3-3 10-20 10-10 6-4 2 1-12 11-5 5-5 10-4 13-6 1-1-1 1-8 4-18 2-11 1-2 2-17 3-6 1-7h2l1-9 2-5z" fill="#C5C5C5"/>
<path transform="translate(1315,1446)" d="m0 0h5l3 3 2 7-2 3-7 2-2 2v12l4 10-1 5-4 3h-5l-4-6-2-4-5 7h-2l2-6-5-2-2-5v-5l2 3 1 6 10-1-1-10h2l3 16 2 4 5-1-1-7-2-8v-12l2-3 8-2-1-7-3-1-4 3-2 5-4 1-3-4v-2l-4-2 7 1v2z" fill="#C5C5C5"/>
<path transform="translate(1089,1010)" d="m0 0h2l-3 9-3 8h-2l-1 5h-3l-3-2h-6l-6 2h-3l-3 3-8 4-10 7-5 2v-2l26-17 21-14z" fill="#F1F1F1"/>
<path transform="translate(1467,1138)" d="m0 0h2l-2 7-12 13-14 10-16 10-12 11-6 7-1-3 5-8 11-10 21-14 13-10 8-9z" fill="#04060E"/>
<path transform="translate(1440,982)" d="m0 0 3 4v25l-5 25-4 17-3 10-4 4-4-1 1-13v-14l-2-9-6-13 1-2 8 16 2 10 1 21 4-16 8-33 1-16z" fill="#C5C5C5"/>
<path transform="translate(1177,667)" d="m0 0h134v3h-129l-5-1z" fill="#010202"/>
<path transform="translate(723,789)" d="m0 0 6 2 9 6 2 5-3 9v7l5 14 7 9 1 3h2l5 5 9 6 8 2 8-1 5-3 5-7v-2h2l-1-3v-7l-4-10-12-19-3-5 1-2 11 17 8 14 2 6v7l-3 7-6 8-9 3-9-1-10-5-12-11-8-11-4-11-1-11 3-8-1-4-13-8z" fill="#C5C5C5"/>
<path transform="translate(580,519)" d="m0 0 4 1-1 3-10 4-11 6-6 5-3 6h-2l-2 5-4 8h-2l1-8 6-19 5-4 1 4 9-5 9-4z" fill="#2F3036"/>
<path transform="translate(1412 1e3)" d="m0 0 3 1 6 8 8 20h3l4-4-1 8-5 22-2 4h-1l-1-22-2-10-7-15-3-3-4-8z" fill="#0E101B"/>
<path transform="translate(473,562)" d="m0 0 2 3 2 10 7 16 3 5-1 2-9-13-2-4v9l3 6-9-2v-6l-3 4-3 10h-1l1-11 6-21 3-7zm-1 12 1 2zm-3 8 1 2z" fill="#C6C6C6"/>
<path transform="translate(1337,1441)" d="m0 0 4 1 9 4 2 5-2 6-2 1-2 4-5 5-2 3 8 1 3-3 1-4h4l1 4-5 13-5 5-6-1-5-3v-2h-2l-4-5-3-12v-6l3-7 6-8zm0 2-5 5-4 8v9l3 10 7 7 4 2 5-1 5-7 2-5v-5h-2l-4 8-5 1-5-5 2-5 8-10 2-4-1-4-10-4z" fill="#C5C5C5"/>
<path transform="translate(1385,1136)" d="m0 0 5 1 4 15 2 3h2l4-9 3 1-13 37h-3l1-8v-22l-2-9z" fill="#080A13"/>
<path transform="translate(1350,1142)" d="m0 0h1v21l1 14 8 20 4 9-4 3-10-22-3-14-1-16 2-10z" fill="#393B43"/>
<path transform="translate(1436,985)" d="m0 0 2 4 1 6v10l-5 26-2 3-4-1-7-16 1-2 4 6 1-10 3-1 5 3 1-10zm-9 40 2 7 3-1-3-5z" fill="#F7F7F7"/>
<path transform="translate(1392,462)" d="m0 0 8 6 8 7 8 13 7 17-1 3v-2h-3l-1 3-8-21-6-10-8-7-4-6z" fill="#4E5057"/>
<path transform="translate(1276,1372)" d="m0 0 18 1 4 6 6 1 8-1 14 4-1 7-4 8h-2l1-5 2-6-26-6-12-4-8-4z" fill="#04060F"/>
<path transform="translate(730,1477)" d="m0 0 3 1 3 5v17l4 8 4 3 5-1 9-8v-3h-2v-2l6-1-1 5-7 8-3 1-2 4h-6l-6-5-3-6-3-12-7 9-7 5-2-1 11-10 3-8z" fill="#C6C6C6"/>
<path transform="translate(1403,1099)" d="m0 0 3 6 1 13-3 17-4 12-2 2-2-4 1-6 4-8v-28z" fill="#FEFEFE"/>
<path transform="translate(1407,1051)" d="m0 0 3 4 5 12 3 11 1 17h2v-18l-4-16h3l4 14v17l-2 5-4 1-2-1-1-7v-8l-3-14-2-7-3-7z" fill="#C5C5C5"/>
<path transform="translate(564,846)" d="m0 0 3 1 4 15 3 13-1 3v-2h-2l-1 2-3-18-2-1-2 1-1 3h-2l-1 7-1 2-4-1 6-15 3-9z" fill="#262831"/>
<path transform="translate(492,698)" d="m0 0h3l4 13v32l-1 5-4 1 1-12-1-26-3-12z" fill="#21222A"/>
<path transform="translate(654,1282)" d="m0 0h1v26l2 12 1 8-3-1-5-11-1-6v-9l2-11 2-4z" fill="#080B1B"/>
<path transform="translate(644,1344)" d="m0 0 4 1 5 9 3 4v2h2l6 10v2h2v2h8l3-1 1-4-4-8 1-3 6 10 3 6-6 3-10 2-5-5-11-17-8-12z" fill="#C5C5C5"/>
<path transform="translate(1298,1464)" d="m0 0 3 2 2 7v7l-10 1-2-6v-9z" fill="#FEFEFE"/>
<path transform="translate(800,1484)" d="m0 0 6 2 5 3-1 9-3 10-5 5-5 1-2-2-1-4v-16l4-6zm1 3-5 4-1 7 1 8 7 2 3-2 3-12-1-4-4-3z" fill="#C5C5C5"/>
<path transform="translate(957,1038)" d="m0 0h7v2l-7 2h-4v2l-15 4-8 2-1 2-10 3v-2l9-3 2-5 10-3 7-2z" fill="#C5C5C5"/>
<path transform="translate(1421,591)" d="m0 0 7 2 8 6 5 5 5 6 4 8 2 9h-2l-1 3-4-13-6-9-5-5-8-6-6-3z" fill="#33343E"/>
<path transform="translate(677,1285)" d="m0 0 2 1v16l-4 12v7l-7 7v-9l4-13 3-9z" fill="#313338"/>
<path transform="translate(1398 1e3)" d="m0 0h2l3 9 1 1 1 15-2 2-1-3-1-13-3 1v9l4 13 5 12-1 3-2-4v-3h-2l-5-13-3-13z" fill="#C5C5C5"/>
<path transform="translate(646,1217)" d="m0 0 3 1v8l-5 17-4 12-1 1-1 9-3 1-1-5 4-16 3-3 3-11z" fill="#0C0F1E"/>
<path transform="translate(1389 1e3)" d="m0 0 1 4-2 19v15l2 10 3 13 6 12 1 4-5-5-5-10-4-10v-38z" fill="#C6C6C6"/>
<path transform="translate(1420,406)" d="m0 0h2l1 2 1 42 1 9-3-1-1-2-1-11z" fill="#0D0E0F"/>
<path transform="translate(650,1290)" d="m0 0h1l-1 11v9l2 9 4 8 2 1-3-12-1-8v-9l1-7h1v13l4 13 1 2v8l-1 1h-6l-4-8-1-1-1-7v-16z" fill="#C7C7C7"/>
<path transform="translate(511,571)" d="m0 0h1v28h2l1-13h1v10l-3 17-2 8-3-4v-10l2-17z" fill="#B5B5BB"/>
<path transform="translate(712,1467)" d="m0 0 4 1 4 5 3 7v10l-6 9h-5l-5-6-2-7v-10l4-7zm1 3-5 4-2 9 2 8 4 5 6-1 3-5v-10l-4-8z" fill="#C5C5C5"/>
<path transform="translate(1416,1015)" d="m0 0 3 3 6 13 2 10 1 21 3-6 2 2-4 8-3 1-3-1 1-13v-14l-2-9-6-13z" fill="#C5C5C5"/>
<path transform="translate(444,724)" d="m0 0h3v36l-3 2-1-5v-30z" fill="#13141D"/>
<path transform="translate(1423,430)" d="m0 0h1l2 22 4 16 3 10-3 4-6-15-2-9h2l-1-8z" fill="#696B77"/>
<path transform="translate(1103,1195)" d="m0 0v3l-6 7 1 6 10 9 8 7v2h4l2-4 4-4-2 5-2 3 3 1-4 4h-2v2h-2l-1-5-8-8-4-3v-2l-4-2-7-7v-5z" fill="#C8C8C8"/>
<path transform="translate(535,609)" d="m0 0 1 2-2 8-4 15-2 11-1-4-3 1 3-18 3-10z" fill="#303236"/>
<path transform="translate(783,1452)" d="m0 0h8l-1 5-7 6-7 2-2-1 1-5z" fill="#C5C5C5"/>
<path transform="translate(451,838)" d="m0 0 4 4 7 11v3l-8-7h-1l-1 9v32h-1l-1-9v-42z" fill="#DBDBDB"/>
<path transform="translate(1436,1218)" d="m0 0 6 2 4 3h-2l-2 5-10 10v-3-4l1-7z" fill="#F6F6F6"/>
<path transform="translate(1398,980)" d="m0 0h2l6 18 6 10-4-1v-2h-2l-3-6v-2l-3-1h2l-2-7h-2l-1 3-1-2-2 4-1 7h-2l-1 4 1-9 5-14z" fill="#C8C8C8"/>
<path transform="translate(1114,1547)" d="m0 0h8l-1 4-21 2-9 1-5-2 1-2z" fill="#04060E"/>
<path transform="translate(1273,1462)" d="m0 0h6l3 3 1 7v12l-4 5-6-2-5-10v-12zm-1 3-3 4 1 9 4 6 5 2 3-4-1-12-2-5z" fill="#C5C5C5"/>
<path transform="translate(458,871)" d="m0 0 4 1-2 1 1 4v7l-1 4 1 4-1 7h-4v3h-2l-2-12 4 3v-9l2-3z" fill="#F2F2F2"/>
<path transform="translate(566,734)" d="m0 0h2l2 19v28l-1 7h-1l-1-9z" fill="#BABBC1"/>
<path transform="translate(683,1374)" d="m0 0 9 1 3 2-18 6-9 1 1-4 5-3z" fill="#060813"/>
<path transform="translate(1481 1e3)" d="m0 0 2 1-12 11-5 5-5 10-4 13-6 1-1-1v-5l2-1v3l3-3 10-20 10-10z" fill="#C5C5C5"/>
<path transform="translate(636,1250)" d="m0 0 1 4-3 11-2 7-4-2-6-13 1-3 3 5 2-4 4-1 2 1zm-7 13-2 2 2 3 3-1v-4z" fill="#F6F6F6"/>
<path transform="translate(1298,1272)" d="m0 0h1l1 11h1l4 18 2 6v8l-2-3v-2h-2l-4-14-1-8z" fill="#464852"/>
<path transform="translate(1436,985)" d="m0 0 2 4 1 6v10l-5 26-2 3-4-1-2-5 1-3 2 7 2-2 1-6 2-5 2-16z" fill="#C6C6C6"/>
<path transform="translate(1412,386)" d="m0 0 3 3 4 12 1 7 1 44h-1l-2-20-2-31-4-13z" fill="#CECECE"/>
<path transform="translate(534,715)" d="m0 0 2 1-4 5v4l-6 8-3 6-4 1-1-3 6-12 5-6zm-4 6m-1 1m-1 1m-1 1m-1 1v3l2-2z" fill="#3E3F44"/>
<path transform="translate(657,1242)" d="m0 0 3 3 1 2v9h-1l-1 18-2 1-1-5v-27z" fill="#191A1F"/>
<path transform="translate(1440,1105)" d="m0 0 1 3-5 14-1 9 4 1h3l-5 5-4 2h-3l1-10 6-18z" fill="#C7C7C7"/>
<path transform="translate(551,464)" d="m0 0h1l1 8-5 13-3 6-4 3-4-2h3l10-25z" fill="#4E526E"/>
<path transform="translate(528,618)" d="m0 0 1 4-3 12-6 42-1 6h-1l1-13 3-29 4-17z" fill="#C9C9C9"/>
<path transform="translate(564,770)" d="m0 0h1v18l-3 15-6 14h-3l5-11 5-26z" fill="#CDCDCD"/>
<path transform="translate(1392,462)" d="m0 0 8 6 8 7 2 3-1 4-4-2-5-6-5-5-3-4z" fill="#36373C"/>
<path transform="translate(608,508)" d="m0 0h1v9l-5 18-9 21-6 10-1-2 8-16 5-12 5-16 1-8-4-1z" fill="#D9D9D9"/>
<path transform="translate(450,705)" d="m0 0h1v7l-3 14-5 1 1-11 2-9z" fill="#494B51"/>
<path transform="translate(1532,838)" d="m0 0h1l1 9v17l-2 20h-1l-1-7 1-28z" fill="#C5C5C5"/>
<path transform="translate(1469,1046)" d="m0 0v3l-7 6-1 2h-2v2h-2l-2 5-4 7-3 5-5-1 1-7 1 3-1 2 4-4 6-9 11-11z" fill="#C5C5C5"/>
<path transform="translate(515,745)" d="m0 0h1l-1 12v42l-1 10 3-1 2-2-1 5-5-1v-57z" fill="#CBCBCB"/>
<path transform="translate(1383,1014)" d="m0 0h1v44h-1l-2-11v-21z" fill="#C5C5C5"/>
<path transform="translate(1353,1136)" d="m0 0h1l-1 11v21l4 19-1 3-5-13-1-23 1-11z" fill="#C5C5C5"/>
<path transform="translate(1258,1158)" d="m0 0 2 2-1 5-13 30-1 2-2-1 3-10 2-1 3-10h2l1-7 2-4z" fill="#C5C5C5"/>
<path transform="translate(1390,1242)" d="m0 0 2 4-2 2 1 4 1 3 2 1-8 5h-3l2-9z" fill="#C9C9C9"/>
<path transform="translate(1276,1372)" d="m0 0 18 1 3 4-1 3-10-2-10-5z" fill="#030409"/>
<path transform="translate(758,1496)" d="m0 0h4l-1 5-7 8-3 1-2 4h-6l-6-5-3-6v-3h2l4 8 4 3 5-1 9-8v-3h-2v-2z" fill="#C5C5C5"/>
<path transform="translate(1337,1450)" d="m0 0 5 2 1 3-4 7-4 1-2-6 3-6z" fill="#CDCDCD"/>
<path transform="translate(492,704)" d="m0 0 2 3 1 4 1 26-2 15-2-1 1-15v-15z" fill="#CACACA"/>
<path transform="translate(1197,1482)" d="m0 0 7 1 1 5-5 5h-4v-9z" fill="#C5C5C5"/>
<path transform="translate(498,743)" d="m0 0h1v32l-1 8-3 1 1-35z" fill="#C5C5C5"/>
<path transform="translate(1250,1438)" d="m0 0 5 1-1 5-5 2-9 1 3-1v-5l2-2z" fill="#090C1F"/>
<path transform="translate(968,1037)" d="m0 0 8 1 1 3h2l-2 4-2 1-1-3-7-1-6 1h-8l4-2 7-1 1-2z" fill="#FEFEFE"/>
<path transform="translate(638,1256)" d="m0 0h1v23l2 5 1 10 2 1v5l-4 1-2-4 4 2-4-13-1-5v-18z" fill="#D6D6D6"/>
<path transform="translate(542,1238)" d="m0 0 6 4 11 7 13 5-4 1-11-3-9-6-8-4z" fill="#C8C8C8"/>
<path transform="translate(913,1647)" d="m0 0 3 2v15l-2 4-2-4-1-3v-10z" fill="#FBFBFB"/>
<path transform="translate(889,1634)" d="m0 0 1 3-1 2 7-3 7-1h10v4l-5 4 2-4 1-1-12 1-6 2h-5z" fill="#C5C5C5"/>
<path transform="translate(794,1503)" d="m0 0h2v3l7 1 3-1 1-3 1 3-4 6-4 2-4-1-2-5z" fill="#C7C7C7"/>
<path transform="translate(1344,1254)" d="m0 0 2 3 2 6v4h3l2-6 4-4-2 6-4 8h-4l-2-8-2-2v-6z" fill="#C5C5C7"/>
<path transform="translate(642,1242)" d="m0 0 1 3-3 10-1 1-1 9-3 1-1-5 3-14z" fill="#262A49"/>
<path transform="translate(1384,1058)" d="m0 0 2 3 4 11 14 24v2l-3-1-6-12-7-11-4-10z" fill="#CECECE"/>
<path transform="translate(612,1217)" d="m0 0 1 2v19l7 21-1 2-6-10-2-12-1-13 1-8z" fill="#C5C5C5"/>
<path transform="translate(511,571)" d="m0 0h1v31l-1 13h-2v-17l1-8z" fill="#6E6F73"/>
<path transform="translate(1346,1344)" d="m0 0 7 6 11 11 1 3-4-1-1-3-4-2v-2l-4-2v-2l-4-1v-3h-2z" fill="#2E3036"/>
<path transform="translate(498,661)" d="m0 0 2 3 3 9v13l-3 2-2-1-1-3v-8h1l2 9-1-15z" fill="#C3C3C5"/>
<path transform="translate(1419,506)" d="m0 0h3v2h2l2 16h-3l-4-12z" fill="#43454A"/>
<path transform="translate(1369,1097)" d="m0 0 2 1 6 21 6 13-2 1-6-12-4-14v-3h-2v-2h-2l1-4z" fill="#C5C5C5"/>
<path transform="translate(946,1043)" d="m0 0h7l-2 2-13 3-8 2-1 2-10 3v-2l9-3 1-3 15-3z" fill="#FEFEFE"/>
<path transform="translate(829,764)" d="m0 0 2 3-4 5-4 1h-10l-2-1v-2l12-1z" fill="#C5C5C5"/>
<path transform="translate(557,1260)" d="m0 0 3 1 1 3h-4l5 8 6 7-5-2-7-6-2-3 1-5z" fill="#E9E9E9"/>
<path transform="translate(1516,961)" d="m0 0 2 2v13l-1 19-1 8-3-3h-1v-8l2 4 1-9 1-23z" fill="#C9C9C9"/>
<path transform="translate(1472,993)" d="m0 0 2 1-1 12-5 4v-12l1-2h2z" fill="#F2F2F2"/>
<path transform="translate(1459,427)" d="m0 0 4 3-1 2-2 18-2 8-2 3 2-17z" fill="#E3E3E3"/>
<path transform="translate(1198,1041)" d="m0 0 17 17 8 7 4 4-1 2-7-7-8-7-14-14z" fill="#030409"/>
<path transform="translate(1466,1041)" d="m0 0 2 1-15 15-6 9-1-2 4-8h2l1-4 4-4h3v-2h2v-2z" fill="#C5C5C5"/>
<path transform="translate(1094,941)" d="m0 0 4 5 16 15 5 5-1 2-10-10-8-7-8-8z" fill="#020305"/>
<path transform="translate(1482,861)" d="m0 0h1l1 19 11-11v3l-12 12h-2z" fill="#B9BAC4"/>
<path transform="translate(1410,479)" d="m0 0 4 5 3 6-2 4v-2l-3 1-4-9z" fill="#4C4D52"/>
<path transform="translate(616,1241)" d="m0 0 3 3 3 8-1 4-4-2-3-9 1-3z" fill="#2C2F42"/>
<path transform="translate(1094,1549)" d="m0 0h7l-1 4-9 1-5-2 1-2z" fill="#03050B"/>
<path transform="translate(1466,987)" d="m0 0 2 3-1 7-3 15 2 1-4-1 1-10z" fill="#CECECE"/>
<path transform="translate(659,1253)" d="m0 0h3v12l-2 11h-1l-1-7z" fill="#6066A0"/>
<path transform="translate(1436,985)" d="m0 0 2 4 1 6v10l-1 6-3 1 1-9z" fill="#ccc"/>
<path transform="translate(783,1454)" d="m0 0h5l-2 4-6 4h-4l2-4z" fill="#070918"/>
<path transform="translate(1494,1014)" d="m0 0v3l-7 9-12 11-2-1 7-7 5-4z" fill="#CFCFCF"/>
<path transform="translate(866,1548)" d="m0 0h13l13 2-4 2-22-2z" fill="#050710"/>
<path transform="translate(1384,1042)" d="m0 0h2l1 16 1 4-2 2-2-6z" fill="#0D112C"/>
<path transform="translate(501,627)" d="m0 0h1l2 16 2 8-4 1-1-2z" fill="#B2B3B9"/>
<path transform="translate(1056,1032)" d="m0 0 2 1-10 8-11 7h-2v-2z" fill="#E6E6E6"/>
<path transform="translate(1333,1207)" d="m0 0h1l1 13v10h-1l-3-13 1-9z" fill="#D5D5D5"/>
<path transform="translate(651,1210)" d="m0 0 3 2-1 3h-1l-4 21-3 4 2-9 3-20z" fill="#ccc"/>
<path transform="translate(1416,1015)" d="m0 0 3 3 6 13 1 3v7l-2-2-2-9-6-13z" fill="#CBCBCB"/>
<path transform="translate(1312,668)" d="m0 0 2 2 5 21-1 3-2-2-1-8-1-1-2-11z" fill="#2C2D2F"/>
<path transform="translate(896,1541)" d="m0 0h5l2 2-1 5h-5l-2-4z" fill="#FBFBFB"/>
<path transform="translate(636,1250)" d="m0 0 1 4-3 11-2 7-4-2-2-4 1-3 2 4h2l4-14z" fill="#C4C4C8"/>
<path transform="translate(1408,1128)" d="m0 0h1l-1 10-3 8h-2l1-7 3-10z" fill="#050711"/>
<path transform="translate(1422,1171)" d="m0 0 4 1-5 5-10 9v-3l6-7z" fill="#C5C5C5"/>
<path transform="translate(1390,1139)" d="m0 0 3 4 2 8h5l-2 5-4-2-4-12z" fill="#CECECE"/>
<path transform="translate(1295,1374)" d="m0 0 9 3 5 2v1l-8 1-4-2z" fill="#181E4D"/>
<path transform="translate(1232,1454)" d="m0 0h2l1 7-5 2-2-1v-5l4-1z" fill="#FEFEFE"/>
<path transform="translate(1309,1318)" d="m0 0 2 4 1 6v9h-1l-2-11-4-5 1-2z" fill="#050712"/>
<path transform="translate(1455,891)" d="m0 0 1 3-2 14h-3l-2-4 3 1 1-10z" fill="#CBCBCB"/>
<path transform="translate(469,597)" d="m0 0 6 2 1 2v6l-2-4-3-3v14l-2-4z" fill="#D5D5D5"/>
<path transform="translate(1340,1248)" d="m0 0 2 4h2v10h-3l-3-10 1-3z" fill="#4B5295"/>
<path transform="translate(1481 1e3)" d="m0 0 2 1-12 11-5 2 6-7z" fill="#D0D0D0"/>
<path transform="translate(1402,993)" d="m0 0h2l6 12 2 3-4-1v-2h-2l-3-6v-2l-3-1h2z" fill="#C5C5C5"/>
<path transform="translate(513,791)" d="m0 0h2l-1 18 3-1 2-2-1 5-5-1z" fill="#C6C6C6"/>
<path transform="translate(490,802)" d="m0 0 3 4 4 10v3l-4-2-3-12z" fill="#DFDFDF"/>
<path transform="translate(588,1240)" d="m0 0 3 4 5 12v4l-3-1-3-11-2-5z" fill="#DADADA"/>
<path transform="translate(475,548)" d="m0 0 3 1 1 21-2-3-1-13-2-5z" fill="#DEDEDE"/>
<path transform="translate(556,454)" d="m0 0 1 2-3 13h-2v-9l2-4z" fill="#1D1F2F"/>
<path transform="translate(1479,1072)" d="m0 0 2 1-3 3-9 4-8 4-2-1 12-7z" fill="#CBCBCB"/>
<path transform="translate(1402,970)" d="m0 0 2 3 3 12v6l-2-3-3-12z" fill="#DBDBDB"/>
<path transform="translate(522,862)" d="m0 0h4l-2 11h-3v-8z" fill="#4F568C"/>
<path transform="translate(1079,1581)" d="m0 0 6 5 2 3-1 5-4-5-3-5z" fill="#292A2C"/>
<path transform="translate(624,1352)" d="m0 0h2l-2 4-10 10-2-1z" fill="#4F5268"/>
<path transform="translate(1384,1029)" d="m0 0h2v13h-2l-1-2v-9z" fill="#1A2058"/>
<path transform="translate(542,580)" d="m0 0 1 2-6 12-4-2v-2l4-2z" fill="#D2D2D2"/>
<path transform="translate(1418,395)" d="m0 0 3 2 1 9h-2l-1 2-2-12z" fill="#303240"/>
<path transform="translate(553,801)" d="m0 0 1 4-8 16-3 2 2-5 7-14z" fill="#F8F8F8"/>
<path transform="translate(657,1313)" d="m0 0 2 2 2 5v8l-2 1-2-10z" fill="#FEFEFE"/>
<path transform="translate(639,1286)" d="m0 0 2 3 1 5 2 1v5l-4 1-2-4 4 2-3-9z" fill="#C5C5C5"/>
<path transform="translate(1360,1199)" d="m0 0 3 4 1 3-4 3-3-9z" fill="#45474F"/>
<path transform="translate(597,1123)" d="m0 0h4l-2 6-3 4-2-4z" fill="#31355C"/>
<path transform="translate(461,881)" d="m0 0 2 3 6 11-1 4-1-3-7-10z" fill="#D1D1D1"/>
<path transform="translate(1075,1542)" d="m0 0 1 2h2v-2h2l2 6h-6l-2-4z" fill="#FEFEFE"/>
<path transform="translate(1454,1080)" d="m0 0 2 2-10 9-4 4 2-5 5-6 5-2z" fill="#C5C5C5"/>
<path transform="translate(1454,420)" d="m0 0h1l2 9-1 16h-1z" fill="#C8C8C8"/>
<path transform="translate(497,869)" d="m0 0h1l1 15-4-1-2-3 3 1v-10z" fill="#ccc"/>
<path transform="translate(558,862)" d="m0 0h2l-1 8-1 2-4-1z" fill="#36394B"/>
<path transform="translate(564,770)" d="m0 0h1v18l-3 1z" fill="#D2D2D2"/>
<path transform="translate(1385,531)" d="m0 0 7 3v2h2l5 7-4-2-7-7-2-1-1 2z" fill="#ccc"/>
<path transform="translate(1468,598)" d="m0 0h1l1 12-3 2-2-11 2 1z" fill="#5E659F"/>
<path transform="translate(653,1274)" d="m0 0h1v12l-1 5-2-1 1-12z" fill="#7C81AA"/>
<path transform="translate(1344,1254)" d="m0 0 2 3 2 8h-2l-3-4v-6z" fill="#C9C9C9"/>
<path transform="translate(1409,996)" d="m0 0 3 4 1 4-4 1-2-5z" fill="#25283B"/>
<path transform="translate(1395,987)" d="m0 0m-1 1 1 3-2 10h-2l-1 4 1-9z" fill="#C5C5C5"/>
<path transform="translate(565,775)" d="m0 0h2l1 4v7l-3 1z" fill="#060915"/>
<path transform="translate(1466,463)" d="m0 0 4 2h-3l-1 15h-1v-16z" fill="#D9D9D9"/>
<path transform="translate(604,1278)" d="m0 0 5 5h4l-1 4-4-1-4-6z" fill="#D3D3D3"/>
<path transform="translate(558,1268)" d="m0 0 5 5 5 6-5-2-6-5z" fill="#DADADA"/>
<path transform="translate(1448,1189)" d="m0 0 2 1-6 5-7 3-3-1 13-7z" fill="#C5C5C5"/>
<path transform="translate(458,633)" d="m0 0 2 2 1 11-2 1v-7h-2v-6z" fill="#030409"/>
<path transform="translate(592,457)" d="m0 0 4 1-6 7-2-1 2-4z" fill="#3B3D4D"/>
<path transform="translate(1347,1402)" d="m0 0 3 1-2 2-8 2-4-1z" fill="#050711"/>
<path transform="translate(1305,1304)" d="m0 0 2 3v8l-2-3v-2h-2v-5z" fill="#111216"/>
<path transform="translate(1246,1186)" d="m0 0h3l-3 9-1 2-2-1z" fill="#C9C9C9"/>
<path transform="translate(1434,1164)" d="m0 0 4 1-10 7-2-1 2-3 5-3z" fill="#C5C5C5"/>
<path transform="translate(1452,1124)" d="m0 0 4 1-14 7v-2h2v-2z" fill="#C5C5C5"/>
<path transform="translate(1215,1059)" d="m0 0 4 2 8 8-1 2-7-7-4-3z" fill="#070917"/>
<path transform="translate(534,715)" d="m0 0 2 1-11 11v-3l4-5z" fill="#DADADA"/>
<path transform="translate(1454,500)" d="m0 0 1 4-2 13h-1v-8z" fill="#C5C5C5"/>
<path transform="translate(556,788)" d="m0 0 1 4-2 4z" fill="#FEFEFE"/>
<path transform="translate(662,1316)" d="m0 0 2 3-1 2z" fill="#FEFEFE"/>
<path transform="translate(553,553)" d="m0 0 2 1-3 2z" fill="#FEFEFE"/>
<path transform="translate(557,549)" d="m0 0 2 1-3 2z" fill="#FEFEFE"/>
<path transform="translate(554,797)" d="m0 0 1 4z" fill="#FEFEFE"/>
<path transform="translate(1477,1015)" d="m0 0 2 1-2 1z" fill="#FEFEFE"/>
<path transform="translate(454,876)" d="m0 0 2 2h-2z" fill="#FEFEFE"/>
<path transform="translate(1407,564)" d="m0 0 2 2h-2z" fill="#C5C5C5"/>
<path transform="translate(534,534)" d="m0 0" fill="#C5C5C5"/>
<path transform="translate(618,1295)" d="m0 0" fill="#FEFEFE"/>
<path transform="translate(623,1285)" d="m0 0" fill="#FEFEFE"/>
<path transform="translate(1480,1014)" d="m0 0" fill="#FEFEFE"/>
<path transform="translate(1429,1007)" d="m0 0" fill="#FEFEFE"/>
<path transform="translate(466,896)" d="m0 0" fill="#FEFEFE"/>
<path transform="translate(557,787)" d="m0 0" fill="#FEFEFE"/>
<path transform="translate(546,588)" d="m0 0" fill="#FEFEFE"/>
<path transform="translate(520,578)" d="m0 0" fill="#FEFEFE"/>
<path transform="translate(519,576)" d="m0 0" fill="#FEFEFE"/>
<path transform="translate(555,552)" d="m0 0" fill="#FEFEFE"/>
<path transform="translate(589,550)" d="m0 0" fill="#FEFEFE"/>
<path transform="translate(1419,548)" d="m0 0" fill="#FEFEFE"/>
<path transform="translate(559,548)" d="m0 0" fill="#FEFEFE"/>
<path transform="translate(1418,547)" d="m0 0" fill="#FEFEFE"/>
</svg>
